<?xml version="1.0" standalone="no"?>
<!DOCTYPE svg PUBLIC "-//W3C//DTD SVG 20010904//EN"
 "http://www.w3.org/TR/2001/REC-SVG-20010904/DTD/svg10.dtd">
<svg version="1.0" xmlns="http://www.w3.org/2000/svg"
 width="222.000000pt" height="227.000000pt" viewBox="0 0 222.000000 227.000000"
 preserveAspectRatio="xMidYMid meet">

<g transform="translate(0.000000,227.000000) scale(0.100000,-0.100000)"
fill="#000000" stroke="none">
<path d="M795 1556 c-184 -49 -366 -138 -536 -262 -237 -174 -311 -347 -194
-454 25 -23 33 -25 128 -24 88 1 118 6 222 38 65 21 126 42 135 47 20 14 7 11
-150 -36 -206 -60 -290 -56 -343 17 -29 39 -27 121 4 184 35 70 148 179 272
262 374 249 776 316 875 146 17 -29 22 -50 19 -81 -8 -75 -21 -86 -157 -121
-146 -39 -193 -57 -188 -74 3 -7 15 -15 29 -19 l24 -6 -27 -11 c-15 -6 -50
-14 -78 -18 -28 -4 -53 -11 -56 -16 -9 -14 60 -2 164 28 89 26 187 71 241 111
25 20 76 35 210 64 97 22 179 39 182 39 4 0 0 -26 -7 -57 -17 -67 -11 -134 18
-211 16 -42 17 -56 8 -67 -10 -12 -9 -16 6 -21 38 -11 47 -21 85 -83 68 -113
64 -162 -18 -202 -61 -30 -172 -34 -199 -7 -17 16 -17 18 1 38 10 11 14 20 8
20 -13 0 -43 -33 -43 -48 0 -44 130 -57 224 -21 60 22 106 67 106 102 0 28
-40 111 -74 156 -14 19 -26 38 -26 42 0 4 19 14 43 22 23 8 51 18 62 22 16 7
18 6 8 -6 -30 -32 1 -40 44 -12 19 13 28 14 30 6 6 -18 64 -26 97 -13 22 8 31
8 36 -1 4 -6 16 -8 28 -5 13 5 22 1 26 -10 3 -9 13 -14 21 -10 9 3 19 -3 25
-15 13 -24 30 -16 23 11 -3 11 0 27 7 35 7 9 10 19 6 23 -4 4 -17 -4 -27 -17
-14 -17 -23 -21 -31 -13 -7 7 -1 15 21 26 17 9 31 21 31 26 0 15 -11 12 -55
-15 -49 -30 -59 -31 -45 -6 19 36 10 45 -17 19 -43 -41 -81 -52 -110 -32 l-25
16 29 18 c17 10 53 41 81 69 72 72 82 121 24 121 -61 0 -138 -85 -151 -168 -4
-21 -15 -41 -30 -51 l-25 -16 19 28 c10 15 16 29 14 32 -2 2 -36 -12 -74 -31
-78 -38 -108 -43 -103 -17 2 9 18 21 37 25 18 5 31 12 28 15 -3 3 -22 0 -43
-7 -43 -14 -46 -11 -69 64 -18 58 -19 130 -4 189 l10 43 123 36 c205 61 281
107 242 147 -12 11 -33 16 -74 15 -110 -3 -242 -69 -284 -144 -13 -22 -30 -42
-38 -45 -14 -4 -341 -75 -348 -75 -1 0 4 13 13 30 22 43 19 111 -7 150 -13 19
-45 45 -73 59 -43 23 -64 26 -160 28 -89 2 -127 -2 -200 -21z m1144 -5 c40
-26 -39 -73 -203 -122 -58 -17 -110 -29 -116 -27 -18 6 59 87 103 110 89 45
180 62 216 39z m-785 -282 c-4 -7 -44 -29 -89 -50 -64 -30 -90 -37 -114 -33
-38 8 -47 19 -23 29 19 8 212 63 225 64 5 1 5 -4 1 -10z m851 -19 c11 -17 -23
-66 -82 -120 -66 -60 -80 -52 -43 25 34 69 106 125 125 95z"/>
<path d="M2160 1217 c0 -19 30 -58 41 -52 5 4 2 19 -6 36 -16 30 -35 39 -35
16z"/>
<path d="M1096 1137 c-76 -40 -156 -118 -156 -149 0 -17 -11 -29 -42 -46 -24
-12 -51 -22 -60 -22 -10 0 -18 -5 -18 -11 0 -13 33 -4 79 23 19 10 51 25 71
32 32 11 39 11 47 -3 9 -14 16 -12 61 11 29 15 54 23 57 17 8 -13 59 -11 90 3
22 10 28 9 36 -3 7 -12 15 -11 49 8 31 16 40 18 40 7 0 -16 23 -18 50 -4 13 7
21 7 25 0 7 -12 54 10 74 34 11 13 15 13 27 1 8 -7 14 -21 14 -29 0 -21 19
-20 27 0 4 10 -1 22 -10 29 -19 13 -23 35 -7 35 6 0 10 5 10 10 0 19 -20 10
-59 -25 -44 -40 -56 -44 -48 -15 7 28 -5 25 -38 -10 -37 -38 -48 -38 -40 2 l7
31 -52 -38 -53 -39 7 27 c8 33 6 33 -40 2 -35 -24 -74 -32 -87 -19 -3 3 -2 17
3 30 13 33 6 30 -49 -16 -26 -22 -53 -40 -60 -40 -29 0 -1 38 67 90 75 56 98
82 87 100 -11 18 -49 10 -109 -23z m84 7 c0 -20 -55 -72 -95 -91 -16 -8 -48
-27 -70 -43 -45 -33 -55 -36 -55 -16 0 22 86 103 144 136 58 34 76 37 76 14z"/>
<path d="M830 966 c-69 -29 -223 -107 -275 -140 -72 -45 -29 -27 82 34 59 33
142 74 183 91 41 17 77 33 79 35 10 10 -18 1 -69 -20z"/>
</g>
</svg>
