<?xml version="1.0" standalone="no"?>
<!DOCTYPE svg PUBLIC "-//W3C//DTD SVG 20010904//EN"
 "http://www.w3.org/TR/2001/REC-SVG-20010904/DTD/svg10.dtd">
<svg version="1.0" xmlns="http://www.w3.org/2000/svg"
 width="262.000000pt" height="192.000000pt" viewBox="0 0 262.000000 192.000000"
 preserveAspectRatio="xMidYMid meet">

<g transform="translate(0.000000,192.000000) scale(0.100000,-0.100000)"
fill="#000000" stroke="none">
<path d="M1902 1785 c-48 -74 -154 -242 -237 -372 -147 -233 -153 -241 -300
-389 -132 -133 -239 -224 -250 -212 -7 7 85 123 152 191 48 48 64 70 56 78
-15 15 -43 -2 -77 -46 -29 -38 -166 -135 -256 -180 -107 -54 -210 -80 -210
-53 0 29 89 92 225 158 133 65 215 119 215 141 0 20 -51 18 -133 -6 -107 -31
-185 -69 -257 -126 -50 -39 -53 -40 -35 -14 199 297 271 412 326 520 118 229
149 356 100 396 -60 48 -176 4 -384 -145 -157 -113 -277 -216 -423 -362 -193
-194 -393 -451 -410 -527 -17 -81 79 -71 251 25 189 105 330 195 333 212 5 22
-24 31 -56 17 -20 -10 -23 -14 -12 -21 18 -11 26 -5 -108 -85 -101 -60 -286
-150 -349 -169 -41 -13 -27 35 39 131 196 286 528 610 825 806 167 110 251
135 275 82 19 -42 -15 -157 -92 -312 -113 -226 -386 -635 -544 -816 -217 -249
-506 -611 -506 -635 0 -8 6 -12 13 -10 23 8 373 427 544 653 98 130 228 242
358 307 53 27 185 71 192 64 8 -7 -52 -44 -167 -101 -251 -125 -334 -225 -186
-225 55 0 145 37 248 102 29 19 59 38 67 42 7 5 -3 -16 -23 -45 -41 -61 -45
-79 -16 -79 51 0 161 79 281 201 l76 77 -29 -69 c-16 -38 -26 -74 -23 -79 17
-27 70 -6 188 77 43 31 80 53 83 50 2 -2 -14 -42 -36 -88 -44 -92 -48 -110
-24 -130 14 -11 25 -10 75 7 l59 21 0 -22 c0 -12 9 -30 20 -40 41 -37 180 -10
578 111 45 14 124 33 174 43 54 10 94 23 96 30 8 25 -130 -4 -402 -85 -162
-48 -324 -84 -380 -84 -87 0 -43 72 90 149 105 61 154 105 137 122 -8 8 -20 6
-44 -7 -51 -26 -149 -93 -193 -132 -35 -31 -105 -68 -163 -86 -34 -11 -30 16
17 113 71 147 52 154 -111 46 -107 -71 -129 -83 -129 -70 0 23 147 277 205
355 133 176 393 608 377 624 -14 14 -28 -3 -110 -129z"/>
</g>
</svg>
