<?xml version="1.0" standalone="no"?>
<!DOCTYPE svg PUBLIC "-//W3C//DTD SVG 20010904//EN"
 "http://www.w3.org/TR/2001/REC-SVG-20010904/DTD/svg10.dtd">
<svg version="1.0" xmlns="http://www.w3.org/2000/svg"
 width="200.000000pt" height="120.000000pt" viewBox="0 0 200.000000 120.000000"
 preserveAspectRatio="xMidYMid meet">

<g transform="translate(0.000000,120.000000) scale(0.100000,-0.100000)"
fill="#000000" stroke="none">
<path d="M1182 1120 c-33 -27 -65 -64 -72 -82 -7 -18 -57 -123 -110 -233 -54
-110 -116 -245 -140 -300 -56 -134 -130 -282 -146 -296 -10 -8 -28 -3 -71 20
-32 18 -69 40 -82 50 l-25 19 56 123 c39 88 62 128 79 136 18 10 20 13 6 13
-14 0 -9 17 33 98 28 53 63 118 78 144 33 58 25 79 -36 92 -90 19 -363 -41
-547 -120 -300 -128 -268 -223 138 -415 89 -43 162 -81 161 -86 -1 -23 -80
-172 -90 -169 -11 4 -40 -91 -31 -101 10 -10 37 6 37 21 0 24 93 228 106 233
6 2 38 -13 70 -33 41 -26 71 -38 98 -38 38 -1 39 0 77 73 41 82 62 100 90 82
26 -16 27 -15 43 24 17 39 31 45 39 15 5 -20 37 -29 37 -9 0 6 5 7 13 2 21
-13 66 -11 71 3 5 12 9 12 26 2 18 -11 23 -10 31 5 10 18 11 18 24 1 11 -15
15 -16 28 -5 9 7 21 10 27 6 6 -4 17 -1 25 5 8 7 15 9 15 5 0 -4 7 -2 15 5 12
10 18 10 30 0 8 -6 20 -8 26 -4 7 4 32 9 55 11 38 3 43 1 38 -14 -4 -11 -2
-14 3 -7 14 17 83 56 83 46 0 -15 -116 -226 -126 -229 -5 -2 -11 7 -12 19 -7
67 -4 88 17 117 13 18 21 34 18 37 -2 3 -19 -17 -36 -43 -25 -38 -31 -54 -26
-78 3 -16 9 -49 12 -72 3 -24 9 -43 13 -43 5 0 29 44 55 97 26 54 71 133 101
175 30 43 54 82 54 88 0 10 104 187 120 204 12 12 103 27 109 18 3 -5 17 -2
31 5 14 7 21 13 17 13 -5 0 5 18 22 39 52 66 35 133 -28 109 -33 -12 -73 -50
-117 -110 -28 -37 -43 -49 -72 -53 -97 -16 -117 -23 -49 -18 37 3 67 2 67 -2
0 -4 -25 -47 -56 -96 -37 -59 -63 -89 -75 -89 -10 0 -21 -5 -24 -10 -4 -6 -15
-8 -26 -5 -14 5 -17 3 -13 -9 3 -9 1 -16 -5 -16 -6 0 -11 5 -11 10 0 6 -12 10
-26 10 -14 0 -23 -4 -19 -9 3 -5 1 -12 -5 -16 -5 -3 -10 -1 -10 4 0 6 -16 11
-36 11 -20 0 -33 -4 -29 -9 3 -6 -3 -15 -14 -20 -15 -9 -20 -7 -24 9 -3 11
-11 20 -19 20 -10 0 -9 -3 2 -10 9 -6 11 -10 3 -10 -7 0 -10 -6 -7 -13 2 -7
-2 -21 -10 -32 -12 -16 -15 -17 -16 -4 0 8 4 19 10 25 5 5 6 15 1 22 -6 10
-18 11 -50 3 -23 -5 -51 -6 -63 -3 -14 3 -19 1 -14 -6 4 -7 0 -15 -9 -18 -12
-5 -13 -9 -5 -14 9 -6 9 -13 2 -26 -10 -18 -11 -18 -17 -1 -4 9 -5 26 -2 37 5
18 1 20 -39 17 -31 -2 -44 1 -44 10 0 20 -47 -5 -53 -28 -5 -20 -27 -27 -27
-9 0 6 5 10 12 10 6 0 8 3 5 6 -12 13 13 43 30 37 11 -4 14 -3 9 5 -4 7 -14
12 -23 12 -9 0 -13 3 -10 7 4 3 1 11 -7 17 -25 20 -28 74 -6 96 37 37 48 26
29 -28 -6 -17 -9 -37 -7 -44 3 -7 13 12 22 42 10 30 27 63 38 73 16 13 17 17
5 17 -14 0 -14 5 0 48 9 26 25 56 37 67 12 11 16 16 9 11 -22 -15 -23 -3 -3
62 41 132 110 242 145 229 18 -7 18 -12 0 -112 -2 -11 -4 -24 -4 -28 -1 -5 -5
-6 -10 -3 -5 3 -12 -1 -15 -10 -3 -8 -2 -12 4 -9 14 9 13 0 -9 -53 -11 -26
-36 -95 -56 -154 -21 -60 -41 -108 -45 -108 -10 0 -30 -47 -30 -71 0 -49 27
-3 72 127 99 278 117 321 148 354 47 50 118 37 133 -25 3 -15 5 -13 6 8 1 21
-6 32 -29 45 -21 12 -28 22 -24 35 10 30 -33 67 -77 67 -30 0 -49 -10 -97 -50z
m135 30 c7 0 17 -9 23 -21 13 -23 -2 -49 -28 -49 -9 0 -31 -14 -48 -31 l-32
-31 5 41 c4 26 1 46 -7 56 -7 9 -11 17 -9 19 19 16 47 25 64 21 11 -3 25 -5
32 -5z m-529 -274 c10 -10 7 -21 -13 -57 -13 -24 -48 -90 -77 -146 -55 -108
-62 -113 -139 -113 -34 0 -36 8 -9 43 21 26 27 72 10 82 -5 3 -30 -26 -56 -64
-29 -44 -55 -71 -70 -75 -18 -5 -24 -13 -24 -36 0 -16 -4 -32 -10 -35 -19 -12
-10 -24 16 -21 15 2 42 21 68 49 40 44 46 47 94 47 29 0 52 -4 52 -9 0 -19
-103 -231 -112 -231 -26 0 -341 163 -396 204 -68 52 -82 71 -82 110 0 58 124
137 310 199 203 68 397 91 438 53z m1082 -1 c16 -20 7 -53 -27 -92 -23 -26
-38 -33 -86 -38 -58 -7 -58 -6 -47 15 19 36 115 130 132 130 8 0 21 -7 28 -15z
m-834 -59 c-8 -20 -20 -36 -26 -36 -6 0 -1 18 10 41 26 49 37 46 16 -5z m-32
-98 c-13 -40 -38 -67 -51 -55 -6 7 26 74 43 91 24 24 26 15 8 -36z m-484 -123
c-43 -62 -49 -51 -8 13 18 28 34 47 36 42 2 -5 -11 -30 -28 -55z m409 -77 c7
-21 9 -43 5 -49 -7 -12 -74 -42 -80 -36 -2 2 8 34 23 70 16 36 30 63 33 59 3
-4 12 -24 19 -44z m601 -13 c0 -15 -47 -51 -55 -43 -5 5 40 58 50 58 3 0 5 -7
5 -15z m-1078 -17 c-7 -7 -12 -8 -12 -2 0 6 3 14 7 17 3 4 9 5 12 2 2 -3 -1
-11 -7 -17z m918 -20 c0 -19 -18 -43 -25 -36 -4 3 -2 16 5 27 12 24 20 27 20
9z m56 -14 c-4 -9 -9 -15 -11 -12 -3 3 -3 13 1 22 4 9 9 15 11 12 3 -3 3 -13
-1 -22z m-204 -19 c-5 -18 -11 -25 -16 -17 -4 6 -2 21 4 33 15 28 21 20 12
-16z m98 6 c-12 -23 -30 -28 -30 -10 0 12 32 40 38 34 2 -2 -1 -13 -8 -24z
m-130 11 c0 -5 -6 -16 -13 -27 -16 -20 -31 -7 -21 19 6 16 34 23 34 8z m-166
-37 c-6 -23 -8 -25 -16 -11 -6 11 -6 22 3 32 16 20 21 12 13 -21z m46 23 c0
-19 -18 -43 -25 -36 -9 9 4 48 16 48 5 0 9 -6 9 -12z m-170 -27 c-11 -22 -35
-28 -45 -11 -5 8 46 42 53 35 2 -2 -1 -13 -8 -24z m78 4 c-8 -17 -15 -22 -21
-16 -7 7 -6 15 3 26 20 24 31 18 18 -10z m-142 -41 c-4 -9 -9 -15 -11 -12 -3
3 -3 13 1 22 4 9 9 15 11 12 3 -3 3 -13 -1 -22z"/>
<path d="M1418 688 c-37 -16 -48 -26 -48 -43 0 -49 103 -100 150 -75 20 11 28
40 10 40 -5 0 -7 -6 -4 -14 7 -18 -29 -25 -70 -14 -56 14 -84 61 -53 87 7 6
38 17 68 25 41 11 47 15 24 15 -16 0 -51 -9 -77 -21z"/>
<path d="M1729 673 c-13 -16 -12 -17 4 -4 16 13 21 21 13 21 -2 0 -10 -8 -17
-17z"/>
<path d="M1588 478 c-2 -15 -19 -31 -47 -47 -49 -27 -41 -42 7 -17 25 13 32
13 41 2 6 -7 9 -21 5 -29 -9 -24 -73 -69 -100 -71 -13 0 -24 -7 -24 -13 0 -29
48 -7 103 45 40 39 45 53 22 72 -13 11 -12 15 5 37 24 30 25 43 6 43 -8 0 -16
-10 -18 -22z"/>
<path d="M1065 273 c-86 -4 -127 -12 -119 -24 3 -6 -2 -19 -11 -29 -9 -10 -14
-24 -10 -29 7 -13 65 -15 65 -2 0 4 -11 6 -25 3 -18 -3 -25 0 -25 12 0 9 3 17
8 17 4 1 17 3 30 4 30 3 40 14 22 25 -14 9 99 16 154 10 11 -1 15 3 12 9 -4 6
-15 10 -24 9 -9 -1 -44 -3 -77 -5z"/>
<path d="M1185 270 c4 -6 11 -8 16 -5 14 9 11 15 -7 15 -8 0 -12 -5 -9 -10z"/>
</g>
</svg>
