<?xml version="1.0" standalone="no"?>
<!DOCTYPE svg PUBLIC "-//W3C//DTD SVG 20010904//EN"
 "http://www.w3.org/TR/2001/REC-SVG-20010904/DTD/svg10.dtd">
<svg version="1.0" xmlns="http://www.w3.org/2000/svg"
 width="252.000000pt" height="200.000000pt" viewBox="0 0 252.000000 200.000000"
 preserveAspectRatio="xMidYMid meet">

<g transform="translate(0.000000,200.000000) scale(0.100000,-0.100000)"
fill="#000000" stroke="none">
<path d="M1850 1851 c0 -11 -14 -82 -30 -156 -17 -75 -34 -166 -37 -203 -7
-74 5 -61 -178 -208 -116 -94 -441 -344 -447 -344 -2 0 -2 43 0 95 4 96 -2
150 -17 141 -4 -3 -16 -69 -27 -147 l-19 -141 -56 -49 c-31 -27 -60 -49 -64
-49 -17 0 3 325 29 465 30 161 46 215 111 378 26 65 45 120 43 123 -8 7 -67
-123 -108 -241 -91 -259 -433 -957 -575 -1175 -80 -124 -78 -120 -63 -120 7 0
27 23 43 51 44 75 487 494 492 466 1 -7 7 -77 12 -156 l10 -144 -35 -42 c-40
-49 -34 -65 11 -31 l32 25 17 -55 c9 -30 23 -54 30 -54 10 0 9 9 -5 38 -39 80
-39 80 62 162 119 98 228 173 312 216 57 29 68 32 63 17 -8 -29 -26 -167 -41
-328 -8 -82 -17 -174 -21 -202 -4 -31 -3 -53 3 -53 5 0 15 51 21 113 7 61 26
177 42 257 41 206 44 238 30 255 -7 9 -10 28 -6 48 5 28 23 45 114 112 170
126 272 215 246 215 -3 0 -34 -26 -68 -57 -66 -61 -268 -215 -274 -208 -2 2 8
57 23 122 20 85 34 125 51 144 24 25 35 54 12 31 -18 -18 -27 -15 -21 8 11 41
-16 18 -33 -27 -10 -27 -32 -68 -49 -93 -40 -55 -65 -104 -65 -125 0 -29 16
-15 59 55 23 39 44 70 46 70 3 0 2 -6 -19 -95 -8 -33 -17 -72 -20 -86 -4 -19
-32 -46 -93 -90 -119 -87 -273 -209 -347 -277 l-61 -57 -7 45 c-3 25 -7 97 -7
161 l-1 116 68 57 67 57 7 -38 c5 -30 0 -53 -23 -105 -30 -68 -36 -98 -20 -98
8 0 35 63 47 113 7 30 19 35 28 12 8 -22 21 -18 36 10 10 19 16 22 26 14 18
-14 32 -4 48 36 17 39 56 81 73 77 10 -2 46 38 67 76 17 29 -16 9 -36 -23 -13
-19 -28 -33 -35 -31 -6 3 -17 -2 -23 -10 -7 -8 -18 -14 -24 -14 -7 0 -20 -22
-30 -50 -17 -48 -36 -66 -36 -35 0 24 -19 18 -32 -10 -12 -27 -23 -31 -33 -14
-4 5 5 28 19 50 28 41 20 55 -8 17 l-17 -23 5 25 c3 14 6 32 6 41 0 9 88 83
202 170 111 84 253 195 315 246 l112 92 11 -34 c6 -18 8 -46 4 -61 -8 -35 -62
-94 -78 -88 -7 3 -18 -5 -24 -18 -10 -21 -11 -19 -11 20 -1 58 -17 45 -24 -20
-4 -29 -9 -71 -12 -93 -5 -30 -4 -36 4 -25 6 8 11 25 11 38 0 12 6 22 14 22 7
0 19 14 26 30 7 17 17 30 22 30 20 0 70 43 79 68 7 19 13 22 21 14 18 -18 25
-15 73 29 25 23 45 36 45 30 0 -22 21 -11 33 18 10 23 55 65 136 128 2 2 2 6
-2 9 -3 3 -31 -15 -62 -40 -31 -25 -60 -46 -65 -46 -4 0 -11 -10 -14 -22 -7
-22 -7 -22 -15 -3 -8 20 -8 20 -15 -2 -7 -22 -79 -93 -95 -93 -18 0 -23 43
-11 101 11 50 20 66 71 117 33 33 59 65 59 73 0 8 -23 -11 -51 -41 -48 -52
-50 -53 -45 -25 19 102 27 190 24 260 -2 67 -6 80 -20 83 -13 2 -18 -3 -18
-17z m26 -125 c-9 -144 -28 -233 -56 -259 l-22 -22 5 70 c5 89 59 325 71 318
5 -4 6 -49 2 -107z m-52 -303 c-9 -39 -24 -52 -24 -22 0 21 16 49 27 49 2 0 0
-12 -3 -27z m-835 -170 c-10 -54 -24 -186 -30 -294 l-13 -197 -115 -100 c-64
-54 -158 -139 -208 -187 -51 -48 -93 -85 -93 -82 0 2 19 40 43 83 127 232 320
624 413 842 8 17 16 32 18 32 2 0 -5 -44 -15 -97z m156 -240 c-4 -49 -12 -92
-17 -98 -11 -10 -4 118 8 163 12 44 16 20 9 -65z m-18 -145 c-3 -7 -5 -2 -5
12 0 14 2 19 5 13 2 -7 2 -19 0 -25z m339 -93 c-4 -16 -27 -35 -73 -61 -97
-53 -171 -105 -291 -201 -57 -46 -106 -82 -109 -79 -8 7 189 174 335 284 75
56 138 98 140 92 2 -6 1 -22 -2 -35z m4 -154 c-17 -97 -31 -163 -36 -159 -2 3
32 259 37 278 1 3 4 -8 6 -24 3 -16 -1 -58 -7 -95z"/>
</g>
</svg>
