<?xml version="1.0" encoding="iso-8859-1"?>
<!-- Generator: Adobe Illustrator 16.0.0, SVG Export Plug-In . SVG Version: 6.00 Build 0)  -->
<!DOCTYPE svg PUBLIC "-//W3C//DTD SVG 1.1//EN" "http://www.w3.org/Graphics/SVG/1.1/DTD/svg11.dtd">
<svg version="1.1" id="Capa_1" xmlns="http://www.w3.org/2000/svg" xmlns:xlink="http://www.w3.org/1999/xlink" x="0px" y="0px"
	 width="58.002px" height="58.002px" viewBox="0 0 58.002 58.002" style="enable-background:new 0 0 58.002 58.002;"
	 xml:space="preserve">
<g>
	<polygon points="8.083,52.088 9.672,53.645 36.425,26.959 30.979,21.513 4.168,48.256 5.763,49.818 	"/>
	<path d="M0.684,57.807l1.381-0.529L0.588,55.76l-0.52,1.409C-0.137,57.73,0.138,58.016,0.684,57.807z"/>
	<polygon points="7.676,55.012 8.513,54.193 3.658,49.441 2.793,50.288 1.183,54.446 3.363,56.58 	"/>
	<path d="M37.133,26.253l0.549,0.548c0.944-0.953,1.933-1.981,2.943-3.06l0.354,0.353l0.353,0.353l0.383,0.383L31.005,35.537
		c-0.391,0.391-0.391,1.023,0,1.414l0.155,0.154c0.391,0.392,1.024,0.392,1.414,0L48.24,21.44c0.391-0.391,0.391-1.024,0-1.414
		l-0.155-0.155c-0.391-0.391-1.023-0.391-1.414,0l-2.189,2.19L43.98,21.56l-0.353-0.352l-0.354-0.355
		c1.592-1.77,3.194-3.612,4.737-5.449c1.476-1.757,2.895-3.505,4.191-5.174c2.583-3.321,4.686-6.323,5.8-8.431l-1.673-1.672
		c-2.119,1.119-5.141,3.24-8.481,5.84c-2.356,1.834-4.869,3.909-7.339,6.041c-3.307,2.856-6.531,5.813-9.181,8.44l0.359,0.359
		L37.133,26.253z"/>
</g>
<g>
</g>
<g>
</g>
<g>
</g>
<g>
</g>
<g>
</g>
<g>
</g>
<g>
</g>
<g>
</g>
<g>
</g>
<g>
</g>
<g>
</g>
<g>
</g>
<g>
</g>
<g>
</g>
<g>
</g>
</svg>
