<?xml version="1.0" standalone="no"?>
<!DOCTYPE svg PUBLIC "-//W3C//DTD SVG 20010904//EN"
 "http://www.w3.org/TR/2001/REC-SVG-20010904/DTD/svg10.dtd">
<svg version="1.0" xmlns="http://www.w3.org/2000/svg"
 width="200.000000pt" height="120.000000pt" viewBox="0 0 200.000000 120.000000"
 preserveAspectRatio="xMidYMid meet">

<g transform="translate(0.000000,120.000000) scale(0.100000,-0.100000)"
fill="#000000" stroke="none">
<path d="M1242 1097 c-125 -111 -196 -230 -211 -352 -5 -38 -6 -84 -4 -100 4
-27 -2 -37 -40 -70 -86 -76 -110 -95 -116 -95 -4 0 -22 -13 -41 -30 -19 -16
-39 -29 -43 -30 -4 0 -17 -9 -29 -20 -17 -15 -228 -124 -313 -160 -132 -57
-166 -70 -189 -70 -21 0 -81 -17 -108 -31 -10 -5 -25 -9 -33 -9 -10 0 -15 -10
-15 -30 0 -27 3 -30 29 -30 17 0 33 5 36 10 3 6 18 10 33 10 25 0 92 22 217
71 107 43 145 60 177 81 14 10 31 18 38 18 6 0 31 14 55 30 24 17 46 30 50 30
16 0 199 137 270 202 l30 28 14 -29 c18 -38 69 -66 105 -57 30 7 116 90 116
112 0 26 17 14 35 -26 26 -58 34 -54 50 25 4 24 16 36 63 58 31 16 65 33 74
38 10 5 26 9 36 9 10 0 22 3 26 7 11 12 80 33 107 33 14 0 29 4 35 9 5 5 48
11 96 14 65 3 92 1 107 -9 17 -12 24 -12 41 -2 22 14 36 49 27 71 -8 22 -140
20 -248 -3 -52 -12 -110 -25 -130 -29 -19 -4 -50 -15 -69 -24 -18 -9 -39 -17
-47 -17 -7 0 -13 -4 -13 -10 0 -5 -9 -10 -21 -10 -11 0 -27 -7 -36 -15 -25
-26 -37 -12 -35 41 3 60 -9 84 -32 65 -9 -8 -16 -20 -16 -29 0 -8 -10 -36 -21
-61 -12 -25 -26 -56 -32 -68 -18 -39 -67 -92 -102 -109 -27 -13 -38 -13 -57
-3 -47 25 -48 37 -2 86 75 81 169 214 221 313 52 100 36 180 -36 180 -20 -1
-42 -6 -49 -13z m73 -66 c3 -12 -4 -40 -19 -69 -52 -103 -205 -312 -228 -312
-25 0 5 136 50 226 60 118 179 211 197 155z"/>
<path d="M770 730 c-14 -11 -32 -20 -42 -20 -9 0 -36 -10 -60 -21 -23 -12 -54
-26 -68 -32 -14 -5 -33 -13 -42 -18 -10 -5 -24 -9 -32 -9 -7 0 -26 -6 -41 -14
-16 -8 -59 -20 -97 -26 -57 -10 -71 -16 -80 -35 -6 -13 -8 -31 -4 -40 8 -23
75 -11 148 26 10 5 26 9 36 9 10 0 40 11 68 24 98 48 126 43 54 -10 -42 -30
-60 -68 -42 -86 9 -9 34 -8 154 8 51 6 66 29 43 61 -11 15 -18 16 -51 5 -21
-6 -40 -10 -41 -8 -4 4 88 93 130 126 18 15 27 31 27 51 0 35 -22 38 -60 9z"/>
</g>
</svg>
