<?xml version="1.0" standalone="no"?>
<!DOCTYPE svg PUBLIC "-//W3C//DTD SVG 20010904//EN"
 "http://www.w3.org/TR/2001/REC-SVG-20010904/DTD/svg10.dtd">
<svg version="1.0" xmlns="http://www.w3.org/2000/svg"
 width="2560.000000pt" height="1536.000000pt" viewBox="0 0 2560.000000 1536.000000"
 preserveAspectRatio="xMidYMid meet">

<g transform="translate(0.000000,1536.000000) scale(0.100000,-0.100000)"
fill="#000000" stroke="none">
<path d="M22430 15350 c0 -5 5 -10 10 -10 6 0 10 5 10 10 0 6 -4 10 -10 10 -5
0 -10 -4 -10 -10z"/>
<path d="M22355 15270 c-3 -5 -1 -10 4 -10 6 0 11 5 11 10 0 6 -2 10 -4 10 -3
0 -8 -4 -11 -10z"/>
<path d="M21475 15240 c3 -5 8 -10 11 -10 2 0 4 5 4 10 0 6 -5 10 -11 10 -5 0
-7 -4 -4 -10z"/>
<path d="M20220 15170 c0 -5 5 -10 11 -10 5 0 7 5 4 10 -3 6 -8 10 -11 10 -2
0 -4 -4 -4 -10z"/>
<path d="M22534 15124 c-18 -15 -18 -15 2 -5 12 6 25 7 29 3 5 -4 5 -1 1 6 -9
15 -8 15 -32 -4z"/>
<path d="M22330 15060 c0 -5 5 -10 11 -10 5 0 7 5 4 10 -3 6 -8 10 -11 10 -2
0 -4 -4 -4 -10z"/>
<path d="M22461 15053 c-1 -7 -9 -13 -18 -13 -15 0 -16 -2 -3 -10 18 -11 35 2
27 22 -4 9 -6 10 -6 1z"/>
<path d="M24255 14831 c-3 -5 -1 -12 4 -15 5 -3 11 1 15 9 6 16 -9 21 -19 6z"/>
<path d="M24260 14790 c0 -5 5 -10 10 -10 6 0 10 5 10 10 0 6 -4 10 -10 10 -5
0 -10 -4 -10 -10z"/>
<path d="M24225 14630 c3 -5 8 -10 11 -10 2 0 4 5 4 10 0 6 -5 10 -11 10 -5 0
-7 -4 -4 -10z"/>
<path d="M24360 14435 c-11 -13 -10 -14 4 -9 9 3 16 10 16 15 0 13 -6 11 -20
-6z"/>
<path d="M25155 14310 c-3 -6 1 -7 9 -4 18 7 21 14 7 14 -6 0 -13 -4 -16 -10z"/>
<path d="M24600 14270 c0 -5 5 -10 10 -10 6 0 10 5 10 10 0 6 -4 10 -10 10 -5
0 -10 -4 -10 -10z"/>
<path d="M25175 14269 c-4 -6 -5 -12 -2 -15 2 -3 7 2 10 11 7 17 1 20 -8 4z"/>
<path d="M24491 14223 c14 -16 52 -17 47 -1 -3 7 -16 13 -31 13 -21 2 -25 -1
-16 -12z"/>
<path d="M24766 14224 c-5 -14 -4 -15 9 -4 17 14 19 20 6 20 -5 0 -12 -7 -15
-16z"/>
<path d="M25135 14231 c-3 -5 -1 -12 5 -16 5 -3 10 1 10 9 0 18 -6 21 -15 7z"/>
<path d="M25030 14226 c0 -4 7 -14 15 -22 8 -9 15 -11 15 -6 0 5 -7 15 -15 22
-8 7 -15 9 -15 6z"/>
<path d="M24390 14216 c0 -2 9 -6 20 -9 11 -3 18 -1 14 4 -5 9 -34 13 -34 5z"/>
<path d="M24584 14165 c8 -8 18 -15 22 -15 3 0 1 7 -6 15 -7 8 -17 15 -22 15
-5 0 -3 -7 6 -15z"/>
<path d="M25005 14170 c3 -5 8 -10 11 -10 2 0 4 5 4 10 0 6 -5 10 -11 10 -5 0
-7 -4 -4 -10z"/>
<path d="M24404 14151 c0 -16 4 -18 18 -10 19 10 16 29 -5 29 -7 0 -13 -9 -13
-19z"/>
<path d="M24705 14160 c-3 -5 -2 -10 4 -10 5 0 13 5 16 10 3 6 2 10 -4 10 -5
0 -13 -4 -16 -10z"/>
<path d="M24656 14131 c-10 -16 15 -49 33 -44 9 2 31 -10 49 -26 17 -17 35
-31 40 -31 4 0 12 -10 17 -22 6 -13 16 -22 23 -20 7 1 12 -1 12 -6 0 -14 -31
-52 -39 -48 -4 3 -8 -3 -8 -12 -1 -9 -4 -32 -6 -50 -3 -18 -2 -31 2 -30 38 19
81 53 81 64 0 8 10 14 25 14 14 0 25 -4 25 -10 0 -5 7 -10 15 -10 8 0 15 5 15
11 0 5 5 7 10 4 6 -3 14 4 19 17 4 13 12 22 17 20 5 -2 10 2 12 8 2 6 -4 10
-14 8 -13 -2 -19 3 -20 17 -1 11 -2 26 -3 33 -1 6 -7 12 -15 12 -7 0 -16 9
-19 21 -3 12 -10 18 -16 14 -6 -3 -8 -11 -5 -17 4 -6 -2 -6 -15 1 -11 7 -21
16 -21 20 0 5 -8 11 -17 15 -10 3 -24 9 -30 12 -8 3 -13 -1 -13 -10 0 -18 -15
-22 -25 -6 -3 5 -13 6 -22 3 -12 -5 -15 -2 -11 8 4 11 -3 16 -25 17 -17 2 -39
10 -48 18 -11 10 -19 12 -23 5z"/>
<path d="M24880 14090 c0 -5 4 -10 9 -10 6 0 13 5 16 10 3 6 -1 10 -9 10 -9 0
-16 -4 -16 -10z"/>
<path d="M25120 14084 c0 -8 5 -12 10 -9 6 4 8 11 5 16 -9 14 -15 11 -15 -7z"/>
<path d="M3755 14000 c3 -5 8 -10 11 -10 2 0 4 5 4 10 0 6 -5 10 -11 10 -5 0
-7 -4 -4 -10z"/>
<path d="M24725 13919 c-4 -6 -5 -12 -2 -15 2 -3 7 2 10 11 7 17 1 20 -8 4z"/>
<path d="M25200 13915 c-7 -9 -11 -18 -8 -20 3 -3 11 1 18 10 7 9 11 18 8 20
-3 3 -11 -1 -18 -10z"/>
<path d="M25259 13913 c-13 -16 -12 -17 4 -4 16 13 21 21 13 21 -2 0 -10 -8
-17 -17z"/>
<path d="M25415 13920 c-3 -5 -1 -10 4 -10 6 0 11 5 11 10 0 6 -2 10 -4 10 -3
0 -8 -4 -11 -10z"/>
<path d="M24665 13900 c-3 -5 -1 -10 4 -10 6 0 11 5 11 10 0 6 -2 10 -4 10 -3
0 -8 -4 -11 -10z"/>
<path d="M25284 13879 c-3 -6 -17 -8 -30 -5 -26 7 -34 -8 -10 -17 16 -6 66 13
66 26 0 11 -18 8 -26 -4z"/>
<path d="M24597 13859 c7 -7 15 -10 18 -7 3 3 -2 9 -12 12 -14 6 -15 5 -6 -5z"/>
<path d="M25160 13820 c0 -5 5 -10 10 -10 6 0 10 5 10 10 0 6 -4 10 -10 10 -5
0 -10 -4 -10 -10z"/>
<path d="M24775 13810 c-3 -5 -1 -10 4 -10 6 0 11 5 11 10 0 6 -2 10 -4 10 -3
0 -8 -4 -11 -10z"/>
<path d="M25225 13800 c3 -5 11 -10 16 -10 6 0 7 5 4 10 -3 6 -11 10 -16 10
-6 0 -7 -4 -4 -10z"/>
<path d="M25396 13788 c-3 -13 -1 -24 4 -26 15 -5 12 -32 -4 -32 -8 0 -16 -6
-19 -13 -4 -10 2 -13 19 -9 19 3 24 0 24 -17 0 -12 -4 -19 -10 -16 -6 3 -7 -1
-4 -9 8 -22 17 -20 41 8 11 13 27 26 34 29 12 5 12 7 0 15 -8 6 -20 8 -28 5
-7 -3 -14 1 -14 8 -1 8 -3 21 -4 29 -2 22 -16 50 -25 50 -4 0 -10 -10 -14 -22z"/>
<path d="M24645 13790 c3 -5 8 -10 11 -10 2 0 4 5 4 10 0 6 -5 10 -11 10 -5 0
-7 -4 -4 -10z"/>
<path d="M24725 13790 c-3 -5 -1 -10 4 -10 6 0 11 5 11 10 0 6 -2 10 -4 10 -3
0 -8 -4 -11 -10z"/>
<path d="M25320 13785 c0 -8 7 -15 16 -15 14 0 14 3 4 15 -7 8 -14 15 -16 15
-2 0 -4 -7 -4 -15z"/>
<path d="M24805 13760 c3 -5 11 -10 16 -10 6 0 7 5 4 10 -3 6 -11 10 -16 10
-6 0 -7 -4 -4 -10z"/>
<path d="M25057 13722 c6 -23 38 -19 48 5 4 13 3 14 -10 3 -12 -10 -18 -10
-29 -1 -12 10 -13 9 -9 -7z"/>
<path d="M25345 13730 c-3 -5 -2 -10 4 -10 5 0 13 5 16 10 3 6 2 10 -4 10 -5
0 -13 -4 -16 -10z"/>
<path d="M24985 13710 c3 -5 8 -10 11 -10 2 0 4 5 4 10 0 6 -5 10 -11 10 -5 0
-7 -4 -4 -10z"/>
<path d="M25240 13710 c0 -5 5 -10 11 -10 5 0 7 5 4 10 -3 6 -8 10 -11 10 -2
0 -4 -4 -4 -10z"/>
<path d="M24805 13700 c-3 -5 -1 -10 4 -10 6 0 11 5 11 10 0 6 -2 10 -4 10 -3
0 -8 -4 -11 -10z"/>
<path d="M24910 13685 c-7 -9 -21 -13 -31 -10 -11 4 -19 2 -19 -4 0 -6 14 -11
31 -11 16 0 28 4 25 9 -4 5 0 11 6 14 7 2 10 7 7 11 -3 4 -12 0 -19 -9z"/>
<path d="M25505 13690 c-3 -5 -1 -10 4 -10 6 0 11 5 11 10 0 6 -2 10 -4 10 -3
0 -8 -4 -11 -10z"/>
<path d="M25025 13674 c-6 -8 -27 -15 -48 -17 -32 -2 -35 -4 -20 -14 20 -16
30 -16 38 -3 4 6 9 9 13 7 10 -5 43 31 34 37 -5 3 -12 -2 -17 -10z"/>
<path d="M25170 13669 c0 -5 5 -7 10 -4 6 3 10 8 10 11 0 2 -4 4 -10 4 -5 0
-10 -5 -10 -11z"/>
<path d="M25335 13670 c-3 -6 1 -7 9 -4 18 7 21 14 7 14 -6 0 -13 -4 -16 -10z"/>
<path d="M24470 13634 c0 -8 5 -12 10 -9 6 3 10 10 10 16 0 5 -4 9 -10 9 -5 0
-10 -7 -10 -16z"/>
<path d="M24540 13630 c0 -5 5 -10 11 -10 5 0 7 5 4 10 -3 6 -8 10 -11 10 -2
0 -4 -4 -4 -10z"/>
<path d="M25237 13633 c-10 -9 -9 -23 1 -23 5 0 9 7 9 15 0 17 -1 18 -10 8z"/>
<path d="M25510 13620 c0 -5 5 -10 11 -10 5 0 7 5 4 10 -3 6 -8 10 -11 10 -2
0 -4 -4 -4 -10z"/>
<path d="M25455 13570 c3 -5 8 -10 11 -10 2 0 4 5 4 10 0 6 -5 10 -11 10 -5 0
-7 -4 -4 -10z"/>
<path d="M25358 13563 c7 -3 16 -2 19 1 4 3 -2 6 -13 5 -11 0 -14 -3 -6 -6z"/>
<path d="M25195 13510 c-3 -5 -1 -10 4 -10 6 0 11 5 11 10 0 6 -2 10 -4 10 -3
0 -8 -4 -11 -10z"/>
<path d="M24981 13484 c0 -11 3 -14 6 -6 3 7 2 16 -1 19 -3 4 -6 -2 -5 -13z"/>
<path d="M25258 13459 c3 -22 9 -29 19 -24 9 3 21 1 28 -5 9 -7 16 -6 25 5 10
12 8 18 -11 35 -13 10 -33 19 -45 20 -17 0 -20 -5 -16 -31z"/>
<path d="M25385 13470 c4 -6 11 -8 16 -5 14 9 11 15 -7 15 -8 0 -12 -5 -9 -10z"/>
<path d="M24615 13460 c-3 -5 -1 -10 4 -10 6 0 11 5 11 10 0 6 -2 10 -4 10 -3
0 -8 -4 -11 -10z"/>
<path d="M25410 13440 c0 -5 5 -10 11 -10 5 0 7 5 4 10 -3 6 -8 10 -11 10 -2
0 -4 -4 -4 -10z"/>
<path d="M25170 13429 c0 -5 5 -7 10 -4 6 3 10 8 10 11 0 2 -4 4 -10 4 -5 0
-10 -5 -10 -11z"/>
<path d="M25470 13420 c0 -5 5 -10 11 -10 5 0 7 5 4 10 -3 6 -8 10 -11 10 -2
0 -4 -4 -4 -10z"/>
<path d="M25520 13416 c0 -2 8 -10 18 -17 15 -13 16 -12 3 4 -13 16 -21 21
-21 13z"/>
<path d="M25587 13387 c-4 -10 -11 -16 -16 -12 -5 3 -13 0 -16 -6 -4 -5 -13
-8 -21 -5 -8 3 -14 -1 -14 -8 0 -8 7 -16 15 -20 8 -3 15 0 15 5 0 7 9 9 21 6
22 -6 33 10 27 40 -3 17 -4 17 -11 0z"/>
<path d="M25010 13373 c0 -6 8 -17 18 -24 16 -13 16 -13 2 6 -8 11 -16 22 -17
24 -2 2 -3 0 -3 -6z"/>
<path d="M25066 13368 c3 -5 10 -6 15 -3 13 9 11 12 -6 12 -8 0 -12 -4 -9 -9z"/>
<path d="M25270 13365 c-7 -9 -8 -15 -2 -15 5 0 12 7 16 15 3 8 4 15 2 15 -2
0 -9 -7 -16 -15z"/>
<path d="M25200 13360 c0 -5 5 -10 10 -10 6 0 10 5 10 10 0 6 -4 10 -10 10 -5
0 -10 -4 -10 -10z"/>
<path d="M25180 13344 c0 -13 18 -39 24 -34 2 3 -2 14 -10 24 -8 11 -14 16
-14 10z"/>
<path d="M25350 13340 c0 -5 5 -10 10 -10 6 0 10 5 10 10 0 6 -4 10 -10 10 -5
0 -10 -4 -10 -10z"/>
<path d="M3140 13330 c0 -5 5 -10 10 -10 6 0 10 5 10 10 0 6 -4 10 -10 10 -5
0 -10 -4 -10 -10z"/>
<path d="M25401 13324 c0 -11 3 -14 6 -6 3 7 2 16 -1 19 -3 4 -6 -2 -5 -13z"/>
<path d="M24935 13310 c-3 -5 -1 -10 4 -10 6 0 11 5 11 10 0 6 -2 10 -4 10 -3
0 -8 -4 -11 -10z"/>
<path d="M25326 13302 c-3 -6 -1 -14 5 -17 15 -10 25 3 12 16 -7 7 -13 7 -17
1z"/>
<path d="M3030 13290 c0 -5 5 -10 11 -10 5 0 7 5 4 10 -3 6 -8 10 -11 10 -2 0
-4 -4 -4 -10z"/>
<path d="M24860 13271 c0 -5 5 -13 10 -16 6 -3 10 -2 10 4 0 5 -4 13 -10 16
-5 3 -10 2 -10 -4z"/>
<path d="M25370 13225 c0 -8 5 -15 10 -15 6 0 10 7 10 15 0 8 -4 15 -10 15 -5
0 -10 -7 -10 -15z"/>
<path d="M2990 13220 c0 -5 4 -10 9 -10 6 0 13 5 16 10 3 6 -1 10 -9 10 -9 0
-16 -4 -16 -10z"/>
<path d="M25550 13129 c0 -5 5 -7 10 -4 6 3 10 8 10 11 0 2 -4 4 -10 4 -5 0
-10 -5 -10 -11z"/>
<path d="M24835 13120 c-3 -5 -1 -10 4 -10 6 0 11 5 11 10 0 6 -2 10 -4 10 -3
0 -8 -4 -11 -10z"/>
<path d="M25360 13090 c0 -5 5 -10 11 -10 5 0 7 5 4 10 -3 6 -8 10 -11 10 -2
0 -4 -4 -4 -10z"/>
<path d="M25451 13064 c0 -11 3 -14 6 -6 3 7 2 16 -1 19 -3 4 -6 -2 -5 -13z"/>
<path d="M25580 13069 c0 -5 5 -7 10 -4 6 3 10 8 10 11 0 2 -4 4 -10 4 -5 0
-10 -5 -10 -11z"/>
<path d="M25315 13050 c-3 -5 -1 -10 4 -10 6 0 11 5 11 10 0 6 -2 10 -4 10 -3
0 -8 -4 -11 -10z"/>
<path d="M25514 12989 c-19 -22 -19 -22 4 -8 12 8 22 17 22 21 0 12 -6 9 -26
-13z"/>
<path d="M25580 12970 c6 -11 13 -20 15 -20 3 0 5 9 5 20 0 11 -7 20 -15 20
-13 0 -14 -4 -5 -20z"/>
<path d="M24818 12963 c7 -3 16 -2 19 1 4 3 -2 6 -13 5 -11 0 -14 -3 -6 -6z"/>
<path d="M25430 12960 c-1 -3 -3 -21 -5 -41 -4 -36 -3 -37 23 -30 15 4 27 13
26 19 -1 7 -2 19 -2 28 -1 8 -7 12 -13 8 -6 -3 -15 0 -20 7 -5 8 -9 12 -9 9z"/>
<path d="M25545 12940 c-3 -5 -1 -10 4 -10 6 0 11 5 11 10 0 6 -2 10 -4 10 -3
0 -8 -4 -11 -10z"/>
<path d="M25290 12900 c0 -5 5 -10 11 -10 5 0 7 5 4 10 -3 6 -8 10 -11 10 -2
0 -4 -4 -4 -10z"/>
<path d="M25395 12880 c3 -5 8 -10 11 -10 2 0 4 5 4 10 0 6 -5 10 -11 10 -5 0
-7 -4 -4 -10z"/>
<path d="M25070 12860 c0 -5 5 -10 11 -10 5 0 7 5 4 10 -3 6 -8 10 -11 10 -2
0 -4 -4 -4 -10z"/>
<path d="M25530 12764 c0 -8 5 -12 10 -9 6 3 10 10 10 16 0 5 -4 9 -10 9 -5 0
-10 -7 -10 -16z"/>
<path d="M24950 12706 c0 -2 7 -6 15 -10 8 -3 15 -1 15 4 0 6 -7 10 -15 10 -8
0 -15 -2 -15 -4z"/>
<path d="M25535 12700 c-3 -5 -1 -10 4 -10 6 0 11 5 11 10 0 6 -2 10 -4 10 -3
0 -8 -4 -11 -10z"/>
<path d="M25450 12650 c0 -5 7 -10 15 -10 8 0 15 5 15 10 0 6 -7 10 -15 10 -8
0 -15 -4 -15 -10z"/>
<path d="M25515 12629 c-11 -16 -1 -19 13 -3 7 8 8 14 3 14 -5 0 -13 -5 -16
-11z"/>
<path d="M25370 12560 c0 -5 5 -10 11 -10 5 0 7 5 4 10 -3 6 -8 10 -11 10 -2
0 -4 -4 -4 -10z"/>
<path d="M25343 12475 c-3 -9 -3 -18 -1 -21 3 -3 8 4 11 16 6 23 -1 27 -10 5z"/>
<path d="M11096 12103 c-2 -2 -57 -6 -122 -9 -66 -3 -137 -12 -159 -19 -22 -8
-78 -19 -125 -25 -114 -14 -118 -15 -126 -23 -4 -4 -19 -7 -33 -7 -44 0 -242
-46 -296 -69 -11 -5 -41 -18 -67 -30 -26 -12 -52 -21 -58 -21 -6 0 -18 -4 -28
-9 -9 -5 -44 -19 -77 -31 -33 -12 -75 -28 -93 -36 -18 -8 -41 -14 -52 -14 -10
0 -25 -6 -32 -12 -16 -16 -104 -58 -121 -58 -6 0 -23 -9 -37 -20 -14 -11 -33
-20 -43 -20 -10 0 -27 -9 -39 -20 -12 -11 -28 -20 -35 -20 -7 0 -13 -4 -13
-10 0 -5 -7 -10 -15 -10 -8 0 -15 -4 -15 -9 0 -5 -26 -21 -57 -36 -61 -29
-101 -53 -195 -116 -31 -22 -62 -39 -68 -39 -5 0 -10 -4 -10 -10 0 -5 -7 -10
-15 -10 -8 0 -15 -4 -15 -10 0 -5 -7 -10 -15 -10 -8 0 -15 -4 -15 -10 0 -5 -6
-10 -14 -10 -8 0 -16 -3 -18 -7 -3 -9 -71 -61 -99 -78 -48 -29 -218 -190 -279
-265 -14 -17 -45 -54 -70 -82 -25 -28 -49 -58 -55 -68 -5 -10 -24 -34 -42 -53
-17 -19 -44 -59 -59 -88 -14 -30 -30 -55 -35 -57 -5 -2 -9 -16 -9 -32 0 -16
-6 -35 -13 -42 -25 -26 -80 -179 -97 -268 -6 -36 -16 -76 -21 -90 -5 -14 -11
-65 -14 -115 -3 -49 -6 -97 -6 -105 -4 -55 15 -326 26 -375 47 -214 90 -355
133 -442 23 -46 42 -88 42 -94 0 -6 9 -22 20 -36 11 -14 20 -34 20 -44 0 -11
4 -19 8 -19 5 0 19 -22 32 -50 13 -27 27 -50 32 -50 4 0 8 -7 8 -16 0 -9 14
-33 30 -53 43 -51 46 -55 60 -81 7 -13 35 -46 62 -72 44 -43 49 -52 43 -79 -4
-16 -18 -42 -31 -57 -14 -15 -42 -45 -62 -67 -21 -22 -46 -53 -56 -70 -23 -35
-111 -125 -123 -125 -5 0 -15 -9 -23 -20 -8 -11 -20 -20 -27 -20 -7 0 -13 -4
-13 -9 0 -8 -73 -85 -136 -143 -37 -34 -96 -105 -108 -129 -5 -11 -15 -19 -23
-19 -7 0 -13 -5 -13 -10 0 -11 -96 -110 -106 -110 -9 0 -28 -22 -62 -72 -18
-27 -39 -48 -47 -48 -8 0 -15 -4 -15 -8 0 -5 -35 -45 -77 -89 -43 -45 -85 -91
-93 -103 -19 -29 -269 -280 -278 -280 -4 0 -14 -9 -22 -21 -8 -11 -23 -31 -32
-42 -10 -12 -28 -35 -40 -51 -13 -15 -88 -94 -168 -175 -80 -81 -152 -157
-160 -169 -8 -12 -18 -22 -23 -22 -10 0 -96 -88 -117 -120 -8 -13 -23 -30 -34
-39 -30 -26 -59 -57 -85 -91 -14 -18 -36 -45 -50 -61 -14 -15 -37 -42 -51 -58
-14 -17 -29 -31 -33 -31 -5 0 -39 -32 -76 -70 -38 -39 -71 -70 -75 -70 -3 0
-19 -13 -34 -30 -16 -16 -34 -30 -41 -30 -6 0 -11 -4 -11 -10 0 -5 -7 -10 -15
-10 -8 0 -15 -4 -15 -10 0 -5 -5 -10 -11 -10 -6 0 -24 -13 -39 -30 -15 -16
-32 -30 -37 -30 -4 0 -24 -19 -43 -42 -60 -70 -113 -118 -130 -118 -5 0 -19
-8 -31 -17 -11 -10 -33 -28 -47 -40 -15 -13 -35 -23 -44 -23 -10 0 -18 -4 -18
-10 0 -5 -7 -10 -15 -10 -8 0 -15 -4 -15 -10 0 -5 -5 -10 -10 -10 -6 0 -20 -9
-32 -20 -12 -11 -28 -20 -35 -20 -7 0 -13 -4 -13 -10 0 -5 -5 -10 -10 -10 -6
0 -29 -9 -53 -19 -23 -11 -55 -22 -72 -26 -144 -30 -196 -29 -227 8 -19 22
-79 29 -85 10 -2 -6 -13 -22 -24 -35 -32 -35 -10 -118 30 -118 11 0 23 -5 68
-28 28 -15 139 -16 148 -2 3 6 28 10 55 10 27 0 52 5 55 10 3 6 17 10 30 10
13 0 27 5 30 10 3 6 19 10 36 10 16 0 29 5 29 10 0 6 9 10 20 10 24 0 58 18
80 42 9 9 33 19 53 23 20 4 34 11 31 16 -6 10 19 39 34 39 6 0 12 6 14 12 3 7
22 13 45 13 29 0 39 3 36 12 -3 7 2 13 11 13 9 0 16 4 16 9 0 5 13 9 29 9 16
-1 37 6 46 16 15 15 15 16 -9 16 -14 0 -26 2 -26 5 0 12 115 135 125 135 6 0
28 23 106 108 12 13 27 21 35 18 8 -3 14 1 14 10 0 8 8 18 17 21 10 4 33 21
52 39 58 54 71 64 81 64 6 0 20 16 31 35 12 20 29 35 40 35 12 0 16 5 13 15
-4 9 0 15 9 15 9 0 19 9 22 20 3 11 12 20 20 20 8 0 17 9 20 20 3 11 10 20 15
20 5 0 12 9 15 21 10 31 115 131 131 125 7 -3 16 -1 19 4 4 6 1 10 -4 10 -6 0
-11 5 -11 10 0 6 6 10 14 10 8 0 18 9 21 21 4 11 60 74 126 140 65 66 119 124
119 129 0 6 7 10 15 10 8 0 15 5 15 10 0 6 4 10 10 10 14 0 95 80 110 109 6
13 34 46 61 75 118 124 186 196 209 225 14 16 37 33 53 36 18 5 27 13 27 26 0
18 61 89 76 89 9 0 64 61 64 71 0 5 6 9 14 9 8 0 18 9 21 20 3 11 10 20 15 20
5 0 12 9 15 20 3 11 12 20 18 20 7 0 23 14 37 31 14 16 50 57 80 89 55 59 136
148 228 247 26 28 58 66 72 84 14 19 37 47 53 63 15 16 27 33 27 37 0 5 7 9
15 9 17 0 42 20 99 77 22 24 47 43 54 43 6 0 12 9 12 20 0 11 4 20 9 20 5 0
13 9 16 20 3 11 13 20 21 20 8 0 14 5 14 10 0 6 5 10 11 10 14 0 46 36 54 61
4 10 18 22 33 25 15 3 35 8 44 11 21 5 88 -17 88 -29 0 -4 5 -8 10 -8 6 0 22
-11 35 -24 13 -14 34 -27 45 -31 11 -3 20 -9 20 -13 0 -4 18 -18 40 -32 22
-14 40 -30 40 -37 0 -6 3 -18 6 -27 4 -10 -12 -33 -45 -66 -27 -27 -52 -50
-55 -50 -6 0 -67 -55 -117 -105 -121 -121 -347 -356 -359 -375 -25 -36 -47
-60 -56 -60 -5 0 -16 -9 -24 -21 -8 -11 -23 -30 -32 -41 -10 -12 -18 -25 -18
-30 0 -10 -80 -88 -90 -88 -4 0 -13 -13 -20 -30 -7 -16 -16 -30 -21 -30 -4 0
-11 -9 -14 -20 -3 -11 -12 -20 -19 -20 -7 0 -18 -11 -24 -25 -7 -14 -20 -29
-29 -32 -19 -7 -73 -60 -73 -72 0 -3 -11 -18 -24 -32 -13 -14 -29 -35 -35 -47
-11 -21 -27 -40 -111 -132 -19 -22 -46 -53 -60 -70 -14 -18 -33 -39 -42 -48
-10 -9 -18 -20 -18 -25 0 -8 -10 -21 -45 -60 -11 -12 -26 -34 -34 -49 -8 -16
-20 -28 -26 -28 -7 0 -21 -19 -31 -42 -10 -23 -38 -61 -61 -84 -23 -23 -52
-61 -65 -85 -34 -63 -57 -98 -98 -148 -11 -13 -20 -28 -20 -32 0 -4 -11 -19
-24 -32 -14 -14 -52 -80 -86 -148 -34 -67 -68 -129 -76 -136 -8 -8 -14 -18
-14 -22 0 -4 -9 -18 -20 -31 -11 -13 -25 -40 -30 -62 -6 -21 -15 -38 -20 -38
-5 0 -14 -18 -20 -39 -6 -22 -23 -53 -38 -69 -44 -49 -62 -75 -62 -89 0 -8
-14 -42 -32 -76 -17 -34 -35 -78 -39 -97 -4 -19 -16 -57 -27 -85 -11 -27 -26
-66 -34 -85 -7 -19 -16 -37 -19 -40 -10 -8 -39 -133 -39 -165 0 -42 -23 -195
-30 -195 -3 0 -7 -56 -8 -125 -4 -125 12 -325 28 -356 5 -9 14 -45 20 -79 6
-34 17 -76 25 -93 7 -18 21 -61 31 -97 10 -36 25 -76 34 -90 9 -14 35 -65 58
-115 24 -49 47 -97 52 -105 6 -8 18 -31 26 -50 9 -19 20 -37 24 -40 5 -3 21
-29 35 -59 30 -59 44 -76 125 -161 30 -31 73 -77 95 -101 22 -25 60 -60 83
-79 24 -19 60 -50 80 -67 20 -18 42 -33 49 -33 7 0 13 -4 13 -10 0 -5 7 -10
15 -10 8 0 15 -4 15 -8 0 -5 16 -14 35 -22 19 -8 35 -17 35 -22 0 -4 7 -8 15
-8 14 0 54 -18 65 -30 3 -3 37 -16 75 -28 39 -13 79 -27 90 -31 11 -5 40 -14
65 -21 25 -6 59 -16 76 -21 17 -5 40 -9 52 -9 11 0 23 -4 26 -9 6 -9 45 -17
141 -29 33 -4 66 -11 72 -15 7 -5 47 -8 88 -8 41 0 75 -4 75 -10 0 -5 76 -9
186 -9 102 0 217 -5 255 -12 42 -7 73 -8 77 -2 4 5 155 10 341 12 187 2 342 7
352 12 10 6 61 10 113 10 53 0 96 4 96 9 0 5 37 12 83 15 119 7 187 17 187 26
0 4 39 8 87 9 48 1 89 5 93 10 3 4 30 11 60 15 110 14 130 18 136 27 3 5 29 9
59 9 30 0 57 4 60 10 3 5 22 10 41 10 19 0 34 5 34 10 0 6 18 10 40 10 22 0
40 5 40 10 0 6 18 10 40 10 22 0 40 5 40 10 0 6 14 10 30 10 17 0 30 5 30 10
0 6 14 10 30 10 17 0 30 5 30 10 0 6 15 10 34 10 19 0 38 5 41 10 3 6 17 10
31 10 13 0 24 5 24 10 0 6 14 10 30 10 17 0 30 5 30 10 0 6 11 10 24 10 14 0
28 5 31 10 3 6 19 10 35 10 16 0 32 4 35 10 3 5 22 10 41 10 19 0 34 5 34 10
0 6 14 10 30 10 17 0 30 5 30 10 0 6 14 10 30 10 17 0 30 5 30 10 0 6 11 10
25 10 14 0 25 5 25 10 0 6 16 10 35 10 19 0 35 5 35 10 0 6 11 10 25 10 14 0
25 5 25 10 0 6 9 10 19 10 11 0 23 5 26 10 3 6 17 10 30 10 13 0 27 5 30 10 3
6 15 10 25 10 10 0 20 3 22 8 6 13 85 52 107 52 11 0 21 5 21 10 0 6 14 10 30
10 17 0 30 5 30 10 0 6 9 10 20 10 11 0 20 5 20 10 0 6 14 10 30 10 17 0 30 5
30 10 0 6 9 10 20 10 11 0 20 5 20 10 0 6 9 10 20 10 11 0 20 5 20 10 0 6 9
10 20 10 11 0 20 5 20 10 0 6 9 10 20 10 11 0 20 5 20 10 0 6 9 10 20 10 11 0
20 5 20 10 0 6 11 10 25 10 14 0 25 5 25 10 0 6 11 10 25 10 14 0 25 5 25 10
0 6 11 10 25 10 14 0 25 5 25 10 0 6 11 10 25 10 14 0 25 5 25 10 0 6 9 10 20
10 11 0 20 5 20 10 0 6 6 10 14 10 7 0 20 7 27 16 7 9 37 28 66 41 29 14 53
29 53 34 0 5 7 9 15 9 8 0 15 5 15 10 0 6 11 10 25 10 14 0 25 5 25 10 0 6 7
10 15 10 8 0 15 5 15 10 0 6 4 10 10 10 9 0 35 19 65 47 8 7 17 13 22 13 5 0
15 9 23 20 8 11 20 20 27 20 7 0 13 5 13 10 0 6 6 10 13 10 7 0 19 9 27 20 8
11 20 20 27 20 24 0 71 32 134 93 16 15 29 31 29 35 0 4 25 30 57 58 31 27 60
54 64 59 56 67 123 158 162 219 46 74 77 96 90 64 4 -10 6 -10 6 0 2 24 34 11
76 -31 23 -23 74 -73 114 -111 39 -39 71 -74 71 -78 0 -4 6 -8 13 -8 6 -1 28
-14 47 -30 19 -17 38 -30 42 -30 4 0 27 -19 50 -41 24 -23 70 -60 103 -82 33
-22 62 -44 63 -49 2 -4 10 -8 17 -8 7 0 15 -6 18 -14 5 -12 25 -25 94 -60 13
-6 23 -14 23 -18 0 -5 9 -8 20 -8 11 0 20 -4 20 -10 0 -5 9 -10 20 -10 11 0
20 -4 20 -10 0 -5 8 -10 18 -10 10 0 37 -9 60 -20 22 -11 46 -20 52 -20 5 0
10 -4 10 -10 0 -5 15 -10 34 -10 19 0 38 -5 41 -10 3 -5 15 -10 26 -10 10 0
19 -4 19 -10 0 -5 18 -10 39 -10 22 0 43 -5 46 -10 3 -5 24 -10 45 -10 21 0
42 -5 45 -10 3 -6 26 -10 50 -10 24 0 47 -4 50 -10 3 -5 32 -10 64 -10 31 0
62 -5 69 -12 9 -9 65 -8 234 1 123 8 228 17 233 21 6 5 44 11 85 14 152 11
205 18 215 27 5 5 21 9 35 9 14 0 30 4 35 9 12 10 153 47 220 56 28 4 55 11
60 15 15 11 55 19 55 12 0 -4 14 -7 30 -8 28 -1 35 8 32 37 -1 4 12 9 28 11
17 3 30 1 30 -3 0 -5 12 -4 26 1 41 16 57 13 51 -10 -3 -13 0 -20 9 -20 8 0
17 -1 21 -2 4 -2 11 12 15 30 7 28 6 36 -9 47 -16 12 -14 14 19 20 21 4 51 2
67 -3 28 -10 30 -9 36 19 5 22 12 29 31 29 13 0 24 5 24 10 0 6 9 10 20 10 11
0 20 5 20 10 0 6 9 10 20 10 11 0 20 -6 20 -14 0 -13 20 -26 41 -26 14 0 11
38 -3 43 -8 3 -6 6 5 6 9 1 23 12 29 26 6 14 19 25 29 25 11 0 20 11 24 30 5
23 12 30 31 30 15 0 22 4 19 10 -10 16 5 50 21 50 8 0 14 -10 14 -22 0 -20 3
-18 16 9 15 31 44 46 44 23 0 -5 11 -10 25 -10 17 0 23 4 19 14 -8 21 25 66
48 66 26 0 46 21 40 42 -3 13 1 18 17 18 14 0 21 6 21 20 0 11 7 20 15 20 9 0
18 12 22 30 3 17 12 30 19 30 8 0 14 5 14 10 0 6 9 10 21 10 12 0 23 8 26 20
3 11 9 20 14 20 5 0 9 7 9 15 0 9 8 19 18 22 25 10 42 29 42 47 0 9 8 16 20
16 11 0 20 6 20 14 0 8 10 33 22 55 22 42 47 54 49 24 1 -21 4 -13 19 45 6 24
17 42 25 42 9 0 16 16 20 44 5 32 12 46 26 49 10 3 27 19 36 37 10 17 26 41
36 52 10 12 17 37 17 60 0 26 6 44 20 55 11 10 20 27 20 39 0 11 9 31 20 44
11 13 20 24 20 26 0 1 -16 -3 -35 -9 -42 -12 -52 -5 -37 26 6 12 14 51 16 87
3 36 12 90 21 120 8 30 15 66 15 79 0 25 -20 92 -31 101 -9 8 -28 93 -23 101
5 8 -83 190 -96 199 -4 3 -10 17 -13 31 -4 14 -16 36 -27 49 -11 13 -20 27
-20 32 0 4 -6 8 -14 8 -8 0 -18 9 -21 20 -3 11 -10 20 -15 20 -5 0 -12 10 -16
22 -7 23 -77 98 -91 98 -5 0 -15 9 -23 20 -8 11 -20 20 -27 20 -7 0 -13 5 -13
10 0 6 -10 21 -23 33 -12 13 -30 35 -40 50 -9 15 -23 27 -30 27 -7 0 -19 9
-27 20 -8 11 -18 20 -22 20 -9 0 -40 24 -84 68 -18 17 -38 32 -44 32 -5 0 -10
5 -10 10 0 6 -5 10 -10 10 -6 0 -20 9 -32 20 -12 11 -28 20 -35 20 -7 0 -13 5
-13 10 0 6 -9 10 -20 10 -11 0 -20 5 -20 10 0 6 -7 10 -15 10 -8 0 -15 5 -15
10 0 6 -5 10 -11 10 -6 0 -31 18 -56 40 -25 22 -54 40 -64 40 -11 0 -19 5 -19
10 0 6 -9 10 -20 10 -11 0 -20 5 -20 10 0 6 -6 10 -14 10 -7 0 -19 7 -27 16
-11 13 -8 25 21 77 19 34 39 67 44 73 6 6 18 21 26 33 8 11 20 21 27 21 7 0
13 4 13 9 0 5 14 24 30 42 45 51 49 56 62 84 6 14 17 25 25 25 7 0 13 6 13 14
0 8 14 23 30 33 17 9 33 25 36 35 3 10 11 18 19 18 8 0 17 9 20 20 3 11 10 20
14 20 5 0 14 14 21 30 7 17 19 30 26 30 8 0 14 4 14 8 0 5 9 19 19 31 11 12
34 40 53 63 18 22 50 59 71 82 20 23 37 44 37 48 0 5 7 8 15 8 8 0 15 4 15 8
0 10 26 44 73 94 20 22 37 44 37 48 0 5 11 20 25 34 14 14 25 30 25 36 0 6 11
22 25 36 14 14 25 29 25 34 0 6 5 10 11 10 15 0 69 59 69 76 0 8 7 14 15 14 8
0 15 7 15 15 0 8 4 15 8 15 5 0 14 11 20 25 7 14 17 31 22 38 39 45 50 61 50
68 0 4 17 25 38 47 20 22 44 50 52 62 25 36 61 80 140 169 17 18 30 37 30 42
0 5 6 9 14 9 8 0 18 9 21 20 4 12 27 41 51 66 24 25 44 52 44 60 0 8 7 14 15
14 8 0 15 4 15 8 0 5 8 18 18 30 9 11 24 30 32 42 21 32 59 70 69 70 5 0 11
10 15 23 7 28 26 54 98 128 32 33 58 64 58 69 0 5 16 25 35 44 19 20 35 40 35
46 0 12 6 20 60 79 46 52 55 63 70 92 8 13 36 47 64 76 84 86 113 119 126 143
15 28 22 37 73 93 20 23 37 45 37 49 0 3 6 13 14 20 7 8 20 27 29 43 8 17 24
39 35 51 23 24 46 89 37 104 -10 16 -204 -157 -205 -183 0 -9 -79 -89 -101
-103 -8 -5 -32 -35 -53 -67 -22 -32 -78 -98 -125 -147 -47 -49 -93 -98 -101
-110 -24 -34 -61 -79 -107 -125 -22 -23 -48 -56 -57 -72 -14 -29 -43 -62 -146
-172 -25 -26 -56 -62 -70 -80 -14 -18 -37 -47 -53 -64 -15 -18 -31 -36 -35
-42 -9 -12 -121 -146 -163 -194 -16 -19 -29 -38 -29 -43 0 -4 -6 -8 -14 -8 -8
0 -18 -9 -21 -21 -4 -11 -17 -33 -30 -47 -13 -15 -50 -58 -82 -97 -32 -38 -62
-75 -68 -81 -5 -6 -21 -25 -35 -43 -14 -18 -37 -46 -52 -63 -16 -16 -28 -34
-28 -39 0 -5 -7 -9 -15 -9 -8 0 -15 -4 -15 -8 0 -9 -23 -40 -62 -84 -16 -16
-28 -33 -28 -38 0 -4 -8 -16 -17 -28 -10 -11 -25 -30 -33 -42 -27 -40 -64 -81
-127 -140 -24 -22 -43 -44 -43 -49 0 -4 -13 -22 -30 -39 -16 -18 -30 -36 -30
-42 0 -5 -6 -10 -13 -10 -8 0 -18 -8 -23 -19 -15 -32 -56 -82 -124 -152 -61
-64 -89 -95 -143 -161 -12 -16 -60 -68 -107 -116 -47 -49 -92 -99 -100 -112
-8 -13 -23 -30 -34 -39 -10 -9 -24 -22 -32 -29 -11 -10 -22 -10 -55 -2 -55 15
-73 33 -59 59 5 11 10 29 10 40 0 12 4 29 9 39 8 16 15 40 42 145 6 23 15 56
20 73 5 17 9 46 9 65 0 32 18 104 55 229 9 30 19 65 22 78 3 12 9 25 14 28 5
3 9 22 9 42 0 20 5 53 11 72 19 63 40 174 39 212 0 20 7 57 15 83 9 25 13 55
10 66 -9 27 4 96 20 112 16 17 75 133 86 170 6 20 3 39 -8 62 -13 27 -24 35
-54 40 -31 5 -44 2 -71 -19 -18 -13 -40 -35 -48 -46 -8 -12 -28 -36 -43 -53
-16 -17 -31 -43 -34 -59 -3 -16 -14 -35 -25 -42 -11 -8 -31 -38 -45 -67 -13
-30 -28 -56 -32 -59 -13 -8 -61 -107 -61 -125 0 -8 -3 -15 -8 -15 -4 0 -18
-23 -31 -50 -13 -27 -27 -50 -31 -50 -4 0 -15 -18 -25 -40 -10 -22 -21 -40
-25 -40 -4 0 -13 -13 -20 -30 -7 -16 -21 -39 -31 -51 -11 -12 -24 -38 -29 -58
-16 -58 -80 -176 -185 -341 -19 -30 -39 -65 -45 -78 -8 -18 -17 -23 -38 -20
-41 5 -39 36 7 120 29 53 42 92 49 145 9 61 35 137 71 203 5 8 16 42 25 75 10
33 26 74 37 91 10 17 19 41 19 52 0 31 21 72 37 72 7 0 16 14 20 30 3 17 9 30
14 30 5 0 9 9 9 20 0 11 3 20 8 20 4 0 18 35 31 78 13 42 27 82 31 87 4 6 10
40 14 76 3 37 14 82 23 100 24 46 21 164 -4 191 -52 58 -149 65 -238 18 -31
-16 -61 -30 -66 -30 -8 0 -35 -20 -64 -47 -8 -7 -18 -13 -24 -13 -6 0 -11 -4
-11 -10 0 -5 -7 -10 -15 -10 -8 0 -15 -4 -15 -10 0 -5 -5 -10 -10 -10 -6 0
-21 -10 -34 -22 -29 -29 -51 -46 -96 -78 -19 -14 -53 -41 -74 -62 -21 -20 -50
-42 -64 -50 -23 -12 -44 -29 -133 -109 -15 -14 -42 -36 -60 -50 -17 -13 -48
-39 -67 -56 -20 -18 -39 -33 -43 -33 -8 0 -67 -51 -125 -107 -19 -18 -36 -33
-39 -33 -3 0 -17 -11 -31 -25 -27 -27 -49 -32 -58 -12 -5 10 -7 10 -12 0 -3
-7 -19 -13 -35 -13 -22 0 -43 13 -84 55 -31 30 -62 55 -70 55 -8 0 -15 5 -15
10 0 6 -6 10 -14 10 -8 0 -31 18 -52 40 -21 22 -44 40 -52 40 -7 0 -21 13 -30
30 -9 16 -21 30 -26 30 -5 0 -16 8 -25 18 -9 9 -29 24 -45 32 -15 8 -38 27
-50 42 -11 16 -48 57 -82 91 -33 35 -64 75 -67 89 -9 33 -54 88 -73 88 -8 0
-14 5 -14 10 0 6 -13 10 -30 10 -16 0 -30 -4 -30 -10 0 -5 -5 -10 -11 -10 -19
0 -49 -41 -49 -66 0 -13 -11 -47 -24 -76 -13 -29 -39 -84 -56 -122 -17 -38
-40 -80 -51 -94 -10 -14 -19 -32 -19 -42 0 -10 -13 -33 -30 -51 -16 -19 -30
-37 -30 -41 0 -4 -11 -18 -24 -31 -13 -13 -34 -44 -46 -68 -13 -24 -25 -46
-29 -49 -10 -8 -51 -69 -51 -76 0 -3 -12 -18 -27 -33 -16 -15 -35 -37 -43 -50
-8 -12 -22 -32 -31 -42 -9 -11 -22 -33 -29 -49 -7 -17 -16 -30 -20 -30 -4 0
-15 -18 -25 -40 -10 -22 -22 -40 -26 -40 -4 0 -10 -9 -14 -19 -3 -10 -17 -22
-31 -25 -14 -4 -22 -11 -19 -16 7 -12 -20 -66 -49 -95 -34 -35 -76 -88 -76
-97 0 -4 -5 -8 -11 -8 -12 0 -89 -77 -89 -90 0 -4 -11 -10 -25 -12 -26 -5 -36
16 -12 25 6 3 -3 6 -20 6 -26 1 -33 5 -33 21 0 13 -7 20 -20 20 -18 0 -20 4
-14 43 4 23 10 44 14 47 4 3 24 38 45 79 20 41 43 81 51 88 8 8 14 21 14 28 0
20 32 85 42 85 4 0 15 18 24 40 9 22 19 40 23 40 4 0 24 35 45 79 21 44 47 84
60 91 22 11 76 107 76 135 0 7 6 20 13 27 20 22 67 86 67 93 0 4 6 13 13 20
27 31 36 43 52 75 9 18 27 43 39 56 35 37 70 79 86 103 8 13 27 37 43 53 15
17 27 33 27 38 0 4 8 16 18 28 9 11 24 30 32 42 8 12 20 28 25 34 6 6 28 45
49 86 43 81 45 85 94 135 17 19 32 38 32 42 0 4 13 22 29 38 15 17 34 42 41
55 7 13 17 29 22 34 4 6 17 22 28 35 12 14 20 39 20 61 0 35 -3 38 -33 44 -66
12 -94 -2 -188 -95 -50 -49 -93 -89 -97 -89 -4 0 -14 -10 -22 -22 -8 -11 -23
-28 -34 -37 -10 -9 -52 -49 -92 -88 -41 -40 -79 -73 -84 -73 -5 0 -12 -9 -15
-20 -3 -11 -12 -20 -20 -20 -8 0 -17 -9 -20 -20 -3 -11 -10 -20 -15 -20 -5 0
-12 -9 -15 -20 -3 -11 -11 -20 -16 -20 -5 0 -22 -14 -37 -31 -15 -17 -61 -66
-102 -109 -41 -43 -82 -88 -90 -100 -8 -12 -27 -36 -42 -54 -15 -17 -28 -34
-28 -38 0 -3 -26 -33 -57 -66 -69 -70 -113 -123 -113 -134 0 -4 -6 -8 -13 -8
-7 0 -19 -9 -27 -21 -8 -12 -27 -35 -42 -51 -16 -17 -28 -33 -28 -38 0 -7 -17
-27 -71 -87 -16 -18 -29 -36 -29 -41 0 -4 -16 -26 -35 -48 -43 -48 -45 -51
-75 -94 -14 -19 -34 -44 -45 -57 -76 -86 -112 -130 -135 -164 -8 -12 -36 -44
-62 -70 -27 -26 -48 -50 -48 -54 0 -3 -13 -17 -29 -31 -17 -14 -33 -34 -36
-44 -4 -11 -15 -20 -25 -20 -10 0 -22 -9 -25 -20 -3 -11 -12 -20 -18 -20 -7 0
-19 -9 -27 -20 -8 -11 -20 -20 -27 -20 -7 0 -13 -4 -13 -10 0 -5 -5 -10 -11
-10 -6 0 -24 -13 -39 -30 -15 -16 -35 -30 -43 -30 -9 0 -19 -4 -22 -10 -10
-16 -40 -11 -66 10 -18 17 -21 25 -13 38 6 9 8 26 4 36 -8 23 -15 14 -25 -31
-7 -35 -22 -43 -31 -18 -5 13 12 77 45 170 6 17 16 51 23 78 7 26 16 47 20 47
4 0 8 7 8 15 0 22 29 75 40 75 6 0 10 -8 10 -17 0 -14 3 -14 19 4 12 12 19 33
18 53 -2 29 2 34 33 46 19 7 30 13 24 13 -12 1 -15 111 -3 111 6 0 23 38 49
108 7 17 16 32 21 32 5 0 9 7 9 16 0 8 6 22 13 29 30 34 35 44 42 75 4 18 11
38 16 44 39 47 48 60 59 86 7 17 16 30 21 30 4 0 13 18 19 40 6 22 15 40 19
40 5 0 14 15 22 33 7 17 20 40 28 49 31 34 41 47 41 58 0 13 80 173 90 180 12
8 60 108 60 124 0 8 7 21 15 29 8 9 32 53 54 99 52 112 61 135 61 159 0 22 78
182 91 187 5 2 9 15 9 30 0 14 5 51 12 82 14 68 7 98 -29 137 -36 38 -81 53
-161 53 -48 0 -74 -6 -103 -22 -22 -12 -39 -25 -39 -29 0 -4 -8 -9 -17 -12
-10 -4 -40 -20 -68 -37 -27 -17 -59 -34 -70 -39 -11 -5 -37 -25 -59 -45 -21
-20 -42 -36 -46 -36 -4 0 -10 -6 -13 -14 -3 -8 -21 -22 -40 -31 -18 -8 -51
-32 -73 -51 -132 -119 -153 -140 -154 -151 0 -7 -4 -13 -9 -13 -13 0 -116
-102 -124 -123 -3 -9 -13 -17 -22 -17 -8 0 -15 -4 -15 -9 0 -11 -55 -71 -65
-71 -10 0 -105 -100 -105 -111 0 -5 -6 -9 -12 -9 -7 0 -24 -17 -38 -38 -14
-20 -30 -41 -37 -45 -7 -4 -13 -15 -13 -22 0 -8 -7 -15 -15 -15 -8 0 -15 -5
-15 -10 0 -6 -24 -37 -52 -69 -29 -33 -64 -73 -78 -91 -21 -27 -70 -78 -109
-115 -34 -32 -91 -98 -91 -105 0 -5 -20 -30 -45 -56 -25 -25 -45 -49 -45 -52
0 -4 -20 -29 -45 -55 -24 -27 -47 -57 -50 -68 -4 -10 -12 -19 -19 -19 -6 0
-23 -18 -36 -40 -14 -22 -28 -40 -32 -40 -3 0 -9 -12 -13 -27 -4 -16 -35 -64
-69 -108 -46 -60 -68 -81 -88 -83 -40 -5 -68 14 -68 45 0 29 82 182 116 216
11 12 38 47 59 77 21 30 45 61 52 68 7 7 16 25 20 40 3 15 13 37 22 48 9 12
23 32 31 44 8 12 22 30 31 40 15 18 33 56 59 128 7 17 16 32 21 32 5 0 9 9 9
19 0 11 7 26 15 35 8 8 15 22 15 30 0 9 6 16 14 16 7 0 19 14 26 30 7 17 16
30 21 30 4 0 11 9 14 20 3 11 12 20 19 20 13 0 46 67 67 135 7 22 22 54 34 70
13 17 29 48 36 70 8 22 17 42 20 45 3 3 14 21 24 40 10 18 24 40 31 48 8 7 17
25 20 40 9 35 62 141 80 159 8 8 14 18 14 22 0 4 9 18 20 31 11 13 20 31 20
40 0 10 9 28 19 41 48 62 115 190 136 262 9 31 22 63 30 70 7 7 25 38 40 68
15 30 36 61 45 69 9 8 31 43 48 77 18 34 36 64 41 67 5 4 12 24 16 46 4 22 10
40 14 40 4 0 13 15 19 33 17 51 42 120 56 152 35 81 57 175 55 231 -3 63 -4
65 -63 125 l-38 39 -89 0 c-49 0 -98 -4 -109 -10 -11 -5 -29 -14 -40 -20 -11
-5 -27 -10 -35 -10 -8 0 -15 -4 -15 -10 0 -5 -13 -10 -30 -10 -16 0 -30 -4
-30 -10 0 -5 -7 -10 -15 -10 -8 0 -15 -4 -15 -8 0 -5 -22 -19 -50 -32 -27 -13
-57 -32 -67 -42 -9 -10 -24 -18 -35 -18 -10 0 -18 -4 -18 -9 0 -5 -15 -14 -32
-22 -18 -7 -40 -20 -48 -29 -8 -8 -28 -22 -45 -30 -16 -8 -32 -17 -35 -20 -3
-3 -21 -17 -40 -30 -19 -13 -42 -32 -51 -42 -9 -10 -21 -18 -28 -18 -6 0 -11
-4 -11 -8 0 -5 -22 -21 -49 -36 -27 -14 -65 -42 -84 -61 -19 -19 -42 -35 -51
-35 -9 0 -16 -4 -16 -10 0 -5 -5 -10 -10 -10 -6 0 -27 -18 -47 -40 -21 -22
-41 -40 -46 -40 -4 0 -20 -11 -35 -25 -15 -14 -36 -28 -47 -31 -11 -4 -36 -23
-55 -43 -19 -20 -48 -43 -64 -51 -16 -8 -51 -36 -78 -62 -26 -27 -53 -48 -58
-48 -6 0 -10 -5 -10 -10 0 -6 -7 -13 -16 -17 -9 -3 -35 -23 -58 -44 -22 -22
-49 -41 -58 -45 -10 -3 -18 -10 -18 -15 0 -5 -6 -9 -14 -9 -8 0 -18 -9 -21
-20 -3 -11 -10 -20 -15 -20 -5 0 -26 -17 -47 -38 -21 -21 -53 -45 -70 -53 -18
-7 -33 -17 -33 -21 0 -5 -4 -8 -9 -8 -5 0 -38 -28 -74 -62 -76 -74 -104 -98
-115 -98 -4 0 -14 -9 -22 -20 -8 -11 -18 -20 -23 -20 -4 0 -30 -21 -57 -47
-75 -74 -98 -93 -110 -93 -5 0 -10 -3 -10 -8 0 -11 -40 -52 -89 -92 -24 -19
-68 -59 -97 -87 -30 -29 -58 -53 -63 -53 -7 0 -53 -43 -96 -90 -28 -31 -89
-80 -105 -85 -11 -3 -22 -14 -25 -24 -3 -10 -17 -23 -30 -29 -14 -7 -28 -19
-31 -27 -4 -8 -12 -15 -20 -15 -8 0 -14 -6 -14 -14 0 -7 -16 -24 -35 -37 -19
-13 -35 -26 -35 -29 0 -14 -78 -87 -103 -98 -49 -21 -147 -8 -147 20 0 4 -6 8
-13 8 -7 0 -23 9 -35 20 -12 11 -26 20 -32 20 -5 0 -10 3 -10 8 0 4 -15 14
-32 21 -18 8 -48 29 -66 47 -38 38 -40 32 43 114 65 64 94 90 101 90 3 0 19
14 34 30 15 17 33 30 39 30 6 0 11 4 11 9 0 5 21 32 48 59 26 27 54 59 62 72
23 33 47 60 54 60 3 0 19 14 34 31 32 37 81 87 108 110 10 9 26 26 34 39 19
30 140 150 151 150 9 0 27 18 99 99 25 28 49 51 54 51 5 0 22 14 38 30 15 17
33 30 40 30 6 0 9 3 5 6 -7 7 38 54 52 54 5 0 13 9 16 20 3 11 13 20 20 20 16
0 115 94 115 109 0 12 79 98 147 162 44 41 93 102 93 116 0 7 5 13 11 13 13 0
89 78 89 91 0 5 4 9 10 9 5 0 36 27 69 60 33 33 65 60 71 60 5 0 10 6 10 13 0
7 18 29 40 48 22 19 40 38 40 42 0 12 34 50 72 83 7 7 33 35 58 64 25 28 61
69 80 90 56 62 143 159 172 191 14 16 29 29 33 29 11 0 44 40 50 61 4 11 11
19 16 19 16 0 39 27 39 44 0 9 16 32 36 52 19 20 41 54 48 74 7 21 24 50 37
64 13 15 34 38 46 51 11 13 24 37 28 53 3 16 15 39 25 50 11 12 20 26 20 33 0
11 60 129 70 139 3 3 14 25 24 50 38 95 39 269 1 310 -8 9 -15 22 -15 29 0 15
-50 58 -104 89 -62 36 -183 79 -261 93 -69 12 -172 19 -179 12z m212 -152
c160 -34 207 -77 223 -205 9 -71 8 -79 -16 -125 -14 -28 -25 -58 -25 -67 0
-16 -39 -94 -52 -104 -3 -3 -22 -39 -42 -81 -20 -42 -48 -89 -61 -103 -14 -15
-25 -31 -25 -35 0 -4 -9 -16 -20 -26 -11 -10 -20 -24 -20 -31 0 -7 -18 -34
-40 -59 -22 -25 -40 -50 -40 -55 0 -5 -24 -35 -53 -67 -29 -32 -63 -71 -75
-88 -13 -16 -96 -106 -186 -200 -90 -93 -190 -201 -222 -238 -33 -38 -92 -103
-132 -145 -40 -43 -143 -153 -230 -247 -202 -219 -281 -296 -406 -400 -26 -22
-60 -53 -74 -69 -15 -16 -40 -41 -57 -55 -16 -14 -97 -95 -180 -180 -156 -161
-374 -383 -522 -533 -68 -69 -93 -88 -115 -88 -15 0 -28 5 -28 10 0 6 -8 10
-18 10 -28 0 -122 115 -166 202 -10 20 -27 46 -37 57 -11 11 -28 42 -38 68
-11 26 -35 82 -54 123 -20 41 -45 104 -57 140 -11 36 -28 79 -36 97 -7 17 -14
39 -14 49 0 9 -6 40 -14 68 -46 160 -50 412 -12 716 10 75 56 206 97 275 22
35 39 70 39 77 0 7 20 40 44 73 25 33 55 75 68 93 45 66 125 155 222 250 126
124 123 122 131 122 3 0 16 9 28 21 42 40 262 188 372 249 61 34 119 70 131
81 11 10 25 19 30 19 5 0 26 11 46 25 20 14 41 25 47 25 5 0 71 30 148 66 139
67 493 191 628 220 352 76 383 80 591 83 95 1 156 -4 222 -18z m1039 -1457 c8
-10 9 -22 4 -28 -5 -6 -12 -38 -16 -71 -4 -33 -18 -82 -30 -110 -12 -27 -25
-57 -29 -65 -3 -8 -17 -35 -31 -59 -14 -24 -25 -50 -25 -57 0 -6 -13 -38 -30
-69 -16 -31 -30 -63 -30 -71 0 -8 -4 -14 -10 -14 -5 0 -10 -9 -10 -19 0 -11
-4 -23 -10 -26 -5 -3 -35 -59 -66 -123 -85 -179 -111 -227 -188 -357 -80 -134
-85 -144 -121 -234 -14 -36 -31 -72 -39 -80 -8 -9 -39 -68 -69 -132 -30 -63
-61 -122 -69 -130 -14 -14 -100 -167 -185 -329 -56 -106 -75 -139 -128 -220
-69 -107 -130 -212 -150 -257 -10 -24 -22 -43 -27 -43 -4 0 -8 -4 -8 -10 0 -5
-15 -30 -34 -54 -19 -25 -45 -66 -58 -92 -32 -65 -55 -78 -126 -71 -74 7 -140
27 -232 70 -122 56 -150 67 -223 82 -39 8 -80 23 -91 34 -12 10 -32 21 -46 24
-34 8 -137 44 -178 63 -18 9 -58 24 -87 34 -30 10 -79 32 -110 49 -30 16 -70
33 -90 37 -19 3 -53 19 -75 35 -21 16 -51 31 -66 35 -14 4 -57 22 -95 40 -51
25 -69 39 -69 54 0 20 55 89 100 125 14 10 59 53 101 95 106 104 186 176 262
235 36 28 70 60 76 72 6 12 30 34 53 49 24 15 73 57 109 93 36 36 86 84 110
106 25 22 83 75 129 119 47 43 128 111 180 150 52 39 100 78 106 86 7 8 46 42
88 75 93 73 209 167 257 209 130 113 217 182 314 246 28 18 70 52 95 75 40 37
169 128 270 190 19 12 48 30 64 39 66 41 135 76 150 76 8 0 19 6 23 13 11 17
121 88 152 98 14 4 44 15 66 24 50 19 124 14 142 -11z m769 -1069 c10 -26 -34
-184 -71 -258 -19 -38 -35 -73 -35 -78 0 -9 -51 -117 -70 -149 -20 -35 -103
-208 -116 -242 -7 -20 -39 -81 -70 -135 -32 -53 -73 -127 -91 -163 -18 -36
-57 -105 -87 -155 -29 -49 -75 -133 -101 -185 -26 -52 -73 -140 -105 -195 -77
-135 -131 -249 -179 -379 -23 -60 -46 -115 -52 -123 -17 -20 -114 -17 -163 6
-39 18 -133 58 -241 105 -27 11 -52 23 -55 26 -3 3 -23 11 -45 17 -61 18 -151
50 -247 90 -103 42 -107 51 -53 130 19 29 35 56 35 61 0 4 14 21 31 38 18 16
52 56 76 89 25 33 60 73 79 88 19 16 34 37 34 47 0 10 15 28 34 40 19 11 48
43 65 69 16 27 46 61 66 77 20 15 42 39 50 53 7 14 30 44 50 66 20 22 55 65
78 95 22 30 62 75 89 99 27 24 56 60 66 80 15 32 441 463 477 484 8 4 35 27
60 52 26 24 56 47 67 51 12 3 53 32 92 64 114 92 217 142 309 149 10 0 20 -6
23 -14z m3178 -715 c-1 -19 -10 -71 -22 -115 -12 -44 -28 -111 -37 -150 -10
-38 -50 -153 -90 -255 -40 -102 -83 -214 -95 -250 -12 -36 -37 -97 -55 -135
-37 -77 -64 -151 -65 -175 -1 -27 -36 -58 -72 -65 -28 -5 -44 -1 -77 19 -22
14 -44 26 -49 26 -5 0 -19 12 -33 26 -22 23 -43 37 -128 83 -14 8 -57 39 -94
70 -37 31 -91 73 -120 94 -106 77 -110 99 -30 164 25 21 67 59 92 84 25 25 81
72 123 103 42 31 78 60 80 65 2 4 55 49 118 100 121 96 195 158 216 179 7 6
17 12 23 12 6 0 16 9 23 20 7 11 18 20 25 20 7 0 13 5 13 10 0 6 7 10 15 10 8
0 15 4 15 9 0 5 8 12 19 16 10 3 31 17 47 30 21 18 41 25 72 25 23 0 42 5 42
11 0 6 10 9 23 7 18 -2 22 -9 21 -38z m-1901 -252 c4 -10 8 -9 16 2 7 11 14
12 24 5 7 -5 35 -26 62 -45 26 -19 69 -56 94 -81 52 -53 157 -142 246 -211 87
-66 165 -148 165 -171 0 -43 -56 -102 -350 -372 -300 -275 -663 -705 -812
-960 -19 -34 -50 -81 -69 -106 -19 -24 -49 -80 -68 -124 -18 -44 -39 -95 -47
-112 -14 -33 -38 -43 -48 -20 -5 10 -7 10 -12 0 -3 -7 -11 -13 -17 -13 -13 0
-77 60 -77 73 0 8 -71 85 -205 221 -33 34 -89 83 -125 109 -36 27 -100 75
-144 108 -43 32 -83 59 -88 59 -5 0 -21 8 -36 18 -15 11 -45 30 -67 44 -39 24
-75 48 -120 78 -13 8 -38 27 -56 41 -19 14 -50 35 -69 45 -46 25 -80 54 -80
70 0 14 29 45 278 299 81 83 155 166 164 185 9 19 31 48 48 65 17 16 42 50 57
75 14 25 49 70 77 102 53 58 133 153 212 248 79 96 218 240 231 240 7 0 13 -9
13 -20 0 -11 5 -20 10 -20 20 0 9 -41 -24 -87 -18 -27 -46 -70 -62 -98 -15
-27 -46 -72 -67 -100 -22 -27 -71 -115 -109 -195 -38 -80 -75 -156 -83 -170
-42 -79 -75 -146 -75 -153 0 -5 -8 -21 -18 -35 -28 -42 -48 -110 -58 -207 -8
-80 13 -109 92 -125 47 -10 63 -9 99 4 23 9 52 28 65 41 13 14 28 25 33 25 11
0 52 34 119 96 26 24 51 44 55 44 5 0 16 15 25 33 9 17 52 75 96 127 45 52 94
111 110 130 16 19 42 60 57 90 16 30 41 69 56 85 29 32 37 43 187 262 128 188
170 251 211 318 18 30 37 55 42 55 5 0 9 9 9 20 0 22 25 28 33 8z m-4943 -278
c0 -5 7 -10 15 -10 8 0 54 -20 102 -44 49 -24 112 -52 141 -61 29 -10 55 -21
58 -26 3 -5 13 -9 23 -9 10 0 29 -8 42 -18 13 -11 36 -22 51 -25 15 -4 33 -14
42 -22 8 -8 20 -15 26 -15 22 0 150 -42 156 -51 3 -5 15 -9 28 -9 25 0 186
-57 201 -71 5 -5 17 -9 26 -9 9 0 22 -7 29 -15 7 -8 20 -15 29 -15 9 0 29 -7
45 -15 15 -8 32 -15 37 -15 5 0 33 -11 63 -25 30 -14 59 -25 65 -25 6 0 30 -9
53 -20 24 -11 62 -24 86 -30 39 -10 42 -13 42 -44 0 -39 -66 -165 -113 -216
-8 -8 -27 -44 -42 -80 -16 -36 -38 -78 -50 -95 -12 -16 -25 -40 -29 -51 -3
-12 -15 -29 -26 -39 -11 -10 -20 -23 -20 -30 0 -17 -24 -65 -32 -65 -5 0 -8
-7 -8 -15 0 -9 -24 -64 -53 -123 -30 -59 -64 -133 -77 -165 l-24 -58 20 -20
c11 -11 37 -22 57 -26 31 -5 43 0 87 32 28 20 70 62 94 93 24 32 58 71 76 87
17 17 45 55 63 85 43 76 95 152 119 172 10 10 53 68 95 130 41 62 85 124 97
138 13 14 32 41 44 60 41 69 67 85 135 85 65 -1 81 -5 317 -90 223 -81 245
-89 248 -97 2 -5 11 -8 20 -8 10 0 44 -13 77 -29 33 -16 85 -41 116 -55 51
-24 58 -30 63 -64 12 -69 26 -90 73 -113 40 -19 55 -21 134 -15 81 6 93 5 144
-18 30 -14 82 -45 115 -68 34 -24 69 -47 78 -53 66 -39 111 -67 210 -134 62
-42 132 -87 155 -101 102 -61 169 -115 277 -226 63 -66 132 -139 152 -164 21
-25 45 -53 54 -62 35 -37 94 -151 95 -186 1 -20 -10 -86 -24 -147 -35 -154
-40 -231 -27 -390 10 -116 18 -159 52 -259 48 -145 97 -266 108 -266 8 0 28
-43 34 -77 4 -18 -18 -80 -45 -123 -5 -8 -20 -35 -34 -60 -113 -201 -219 -322
-396 -454 -138 -103 -154 -114 -199 -136 -25 -12 -67 -39 -94 -59 -56 -42
-198 -124 -306 -177 -41 -21 -92 -48 -112 -61 -21 -13 -44 -23 -51 -23 -8 0
-45 -14 -83 -30 -94 -42 -104 -46 -144 -61 -19 -7 -47 -20 -61 -30 -14 -10
-38 -21 -54 -25 -16 -4 -67 -24 -112 -46 -46 -21 -90 -38 -98 -38 -8 0 -15 -4
-15 -10 0 -5 -11 -10 -24 -10 -14 0 -27 -4 -30 -9 -3 -5 -18 -12 -33 -15 -16
-4 -46 -16 -68 -26 -34 -16 -122 -44 -255 -82 -19 -5 -53 -13 -75 -18 -34 -6
-134 -41 -225 -78 -50 -20 -169 -44 -181 -36 -7 4 -10 3 -6 -3 11 -17 -73 -41
-238 -68 -16 -3 -70 -14 -120 -25 -166 -35 -269 -50 -418 -60 -81 -5 -151 -12
-156 -15 -19 -11 -215 -26 -426 -31 -121 -4 -233 -7 -250 -7 -28 -1 -194 4
-595 18 -138 5 -310 28 -425 56 -22 6 -60 15 -85 20 -43 9 -80 21 -125 40 -11
4 -49 17 -85 28 -134 40 -252 98 -327 161 -7 6 -42 31 -78 56 -36 25 -65 49
-65 54 0 4 -11 18 -26 31 -14 13 -46 51 -71 84 -26 33 -68 83 -95 112 -26 28
-48 55 -49 60 -2 28 -9 47 -22 61 -22 25 -67 109 -117 217 -12 28 -30 66 -40
85 -10 19 -21 49 -24 67 -4 18 -17 44 -28 58 -31 40 -40 88 -43 235 -7 320 -3
416 24 555 6 28 15 82 21 120 19 118 32 169 45 185 17 20 85 148 85 160 0 17
50 114 86 165 19 28 39 66 44 85 5 20 16 44 24 55 9 11 16 28 16 38 0 9 20 42
45 73 26 32 45 65 45 79 0 15 12 36 31 52 17 16 37 42 44 60 13 30 21 42 52
77 7 8 20 32 28 54 9 22 22 43 29 45 8 3 17 18 20 33 4 15 39 64 77 108 38 43
69 88 69 99 0 11 15 33 33 51 19 17 44 49 58 71 13 22 44 63 69 92 77 88 116
137 135 171 11 17 27 35 37 38 10 3 18 9 18 14 0 13 76 103 148 176 34 35 62
66 62 70 0 4 15 24 33 44 17 21 47 59 66 84 18 25 37 46 41 46 16 0 98 87 124
132 15 26 44 61 64 77 20 17 44 37 52 46 24 24 242 240 280 277 19 19 68 69
108 110 40 41 85 81 100 89 15 8 32 19 37 26 18 21 115 32 115 13z m7150 -60
c0 -5 9 -10 21 -10 20 0 21 -3 14 -72 -6 -63 -38 -185 -65 -253 -10 -24 -28
-111 -44 -215 -7 -41 -18 -85 -24 -97 -7 -12 -12 -34 -12 -50 0 -62 -57 -196
-87 -208 -20 -7 -74 19 -155 74 -103 70 -103 64 -18 238 86 176 136 260 243
416 20 30 42 69 49 88 18 52 48 99 64 99 8 0 14 -4 14 -10z m-1387 -286 c18
-9 49 -32 70 -51 22 -19 76 -59 120 -88 45 -29 91 -60 102 -69 42 -34 178
-128 199 -137 82 -38 120 -79 113 -119 -3 -14 -19 -61 -36 -105 -17 -44 -35
-96 -40 -115 -5 -19 -16 -61 -25 -92 -30 -110 25 -155 133 -112 41 16 131 113
131 141 0 20 28 74 53 101 16 17 31 22 73 22 48 0 62 -6 154 -66 56 -36 104
-72 107 -80 3 -8 0 -51 -7 -95 -11 -70 -11 -85 5 -125 23 -62 51 -77 124 -72
46 3 67 10 96 34 20 16 49 37 63 46 29 19 102 25 102 8 0 -5 4 -10 10 -10 19
0 331 -196 338 -212 2 -5 7 -8 12 -8 14 0 130 -80 130 -89 0 -5 28 -31 63 -59
136 -108 246 -231 372 -419 100 -150 115 -191 120 -327 3 -70 1 -114 -6 -123
-6 -7 -9 -19 -6 -27 7 -17 -33 -171 -55 -211 -9 -17 -42 -82 -72 -146 -31 -64
-73 -136 -94 -160 -21 -24 -46 -57 -57 -74 -49 -78 -287 -330 -396 -420 -109
-90 -225 -175 -240 -175 -9 0 -22 -7 -30 -16 -7 -8 -26 -22 -43 -31 -17 -9
-38 -26 -48 -39 -10 -12 -33 -25 -51 -29 -17 -4 -66 -23 -107 -42 -87 -41
-203 -80 -385 -129 -276 -74 -283 -75 -625 -111 -140 -14 -380 5 -465 37 -14
5 -37 10 -51 10 -13 0 -43 9 -67 20 -48 22 -118 39 -162 40 -16 0 -52 11 -79
25 -27 14 -60 25 -72 25 -13 0 -26 4 -29 10 -3 5 -27 19 -53 30 -25 11 -49 24
-52 28 -3 4 -25 18 -50 31 -105 56 -340 241 -340 267 0 7 -9 15 -19 19 -41 13
-240 223 -289 306 -23 38 -23 45 -12 83 7 22 20 57 31 77 46 91 45 513 -2 598
-15 28 -59 147 -59 162 -1 8 -9 32 -20 54 -11 22 -19 47 -20 56 0 9 -7 22 -14
29 -8 6 -22 34 -31 61 -19 55 -15 115 10 163 8 15 20 46 26 69 6 22 21 61 33
86 105 211 191 356 285 479 111 147 179 233 251 317 87 101 365 385 378 385
11 0 43 30 243 227 145 141 159 153 193 153 20 0 51 -7 69 -16z m-4189 -234
c31 -12 33 -38 6 -73 -11 -14 -20 -32 -20 -41 0 -8 -6 -19 -13 -23 -7 -4 -22
-22 -33 -39 -10 -17 -37 -55 -59 -85 -22 -29 -40 -56 -40 -59 0 -19 -108 -130
-126 -130 -23 0 -24 16 -5 61 7 19 12 39 9 46 -2 6 5 28 16 49 12 21 21 44 21
51 0 7 6 13 13 13 7 0 30 33 52 73 52 98 73 126 109 148 36 22 37 22 70 9z
m2676 -1830 c0 -5 13 -37 29 -72 38 -81 46 -112 66 -235 16 -98 16 -104 -2
-155 -11 -29 -20 -80 -22 -113 -1 -33 -4 -68 -7 -77 -8 -28 -34 -22 -34 7 0
14 -6 25 -13 25 -22 0 -60 99 -87 226 -30 137 -14 360 28 392 19 14 42 16 42
2z"/>
<path d="M24940 12029 c0 -5 5 -7 10 -4 6 3 10 8 10 11 0 2 -4 4 -10 4 -5 0
-10 -5 -10 -11z"/>
<path d="M25378 11873 c7 -3 16 -2 19 1 4 3 -2 6 -13 5 -11 0 -14 -3 -6 -6z"/>
<path d="M2790 11821 c0 -5 5 -13 10 -16 6 -3 10 -2 10 4 0 5 -4 13 -10 16 -5
3 -10 2 -10 -4z"/>
<path d="M2875 11800 c-3 -5 -1 -10 4 -10 6 0 11 5 11 10 0 6 -2 10 -4 10 -3
0 -8 -4 -11 -10z"/>
<path d="M2596 9853 c-6 -14 -5 -15 5 -6 7 7 10 15 7 18 -3 3 -9 -2 -12 -12z"/>
<path d="M2640 9630 c0 -5 5 -10 11 -10 5 0 7 5 4 10 -3 6 -8 10 -11 10 -2 0
-4 -4 -4 -10z"/>
<path d="M12386 7545 c-3 -8 -1 -15 4 -15 6 0 10 7 10 15 0 8 -2 15 -4 15 -2
0 -6 -7 -10 -15z"/>
<path d="M5967 6193 c-4 -3 -7 -21 -7 -39 0 -48 38 -66 95 -44 25 10 25 10 8
37 -10 16 -25 33 -33 40 -16 13 -53 17 -63 6z"/>
<path d="M6683 6124 c-25 -39 -22 -43 8 -13 11 11 19 26 17 33 -2 7 -13 -2
-25 -20z"/>
<path d="M17956 5668 c-9 -34 -7 -58 4 -58 6 0 8 11 4 25 -4 15 -2 25 5 25 6
0 11 7 11 15 0 23 -17 18 -24 -7z"/>
<path d="M17935 5530 c-3 -5 -1 -10 4 -10 6 0 11 5 11 10 0 6 -2 10 -4 10 -3
0 -8 -4 -11 -10z"/>
<path d="M7015 5441 c-3 -5 -1 -12 5 -16 5 -3 10 1 10 9 0 18 -6 21 -15 7z"/>
<path d="M6735 4531 c-3 -5 -1 -12 5 -16 5 -3 10 1 10 9 0 18 -6 21 -15 7z"/>
<path d="M6690 4280 c0 -5 5 -10 11 -10 5 0 7 5 4 10 -3 6 -8 10 -11 10 -2 0
-4 -4 -4 -10z"/>
<path d="M16850 4150 c0 -11 4 -20 9 -20 5 0 7 9 4 20 -3 11 -7 20 -9 20 -2 0
-4 -9 -4 -20z"/>
<path d="M6900 4031 c-17 -32 -13 -43 11 -31 15 9 18 15 10 24 -6 7 -8 16 -4
19 3 4 3 7 0 7 -3 0 -11 -9 -17 -19z"/>
<path d="M18170 4009 c0 -5 5 -7 10 -4 6 3 10 8 10 11 0 2 -4 4 -10 4 -5 0
-10 -5 -10 -11z"/>
<path d="M18228 3712 c-23 -4 -23 -16 -1 -33 15 -12 16 -12 10 3 -3 9 -1 19 6
21 18 6 5 14 -15 9z"/>
<path d="M18070 3501 c0 -17 18 -21 24 -6 3 9 0 15 -9 15 -8 0 -15 -4 -15 -9z"/>
<path d="M7231 3354 c0 -11 3 -14 6 -6 3 7 2 16 -1 19 -3 4 -6 -2 -5 -13z"/>
<path d="M6626 3341 c-3 -5 1 -11 9 -15 8 -3 15 -1 15 4 0 13 -18 22 -24 11z"/>
<path d="M17970 3270 c0 -5 5 -10 11 -10 5 0 7 5 4 10 -3 6 -8 10 -11 10 -2 0
-4 -4 -4 -10z"/>
<path d="M7170 3244 c0 -8 5 -12 10 -9 6 3 10 10 10 16 0 5 -4 9 -10 9 -5 0
-10 -7 -10 -16z"/>
<path d="M7150 3233 c0 -13 5 -23 10 -23 13 0 13 11 0 30 -8 12 -10 11 -10 -7z"/>
<path d="M7140 3195 c17 -21 50 -19 50 3 0 11 -3 13 -8 5 -5 -8 -13 -9 -22 -3
-23 15 -34 12 -20 -5z"/>
<path d="M17970 3170 c0 -5 9 -10 19 -10 11 0 23 5 26 10 4 6 -5 10 -19 10
-14 0 -26 -4 -26 -10z"/>
<path d="M7320 3119 c0 -5 5 -7 10 -4 6 3 10 8 10 11 0 2 -4 4 -10 4 -5 0 -10
-5 -10 -11z"/>
<path d="M6870 3061 c0 -5 7 -11 15 -15 9 -3 15 0 15 9 0 8 -7 15 -15 15 -8 0
-15 -4 -15 -9z"/>
<path d="M7063 2993 c-7 -2 -13 -11 -13 -18 0 -7 -6 -16 -12 -18 -10 -4 -10
-6 0 -6 6 -1 12 -9 13 -18 0 -11 3 -13 6 -6 3 10 8 9 19 -2 9 -8 12 -20 8 -26
-4 -8 0 -8 15 0 25 14 30 46 5 37 -11 -4 -14 -1 -9 13 6 19 -3 52 -14 50 -3 0
-12 -3 -18 -6z"/>
<path d="M19993 2956 c-10 -11 -9 -15 2 -20 10 -4 15 1 15 14 0 23 -1 24 -17
6z"/>
<path d="M7190 2825 c0 -8 27 -35 34 -35 14 0 4 20 -14 30 -11 6 -20 8 -20 5z"/>
<path d="M19637 2021 c4 -18 30 -31 61 -31 6 0 12 9 12 19 0 14 -5 18 -19 14
-10 -3 -22 0 -25 6 -12 19 -35 13 -29 -8z"/>
<path d="M0 1666 c0 -2 7 -6 15 -10 8 -3 15 -1 15 4 0 6 -7 10 -15 10 -8 0
-15 -2 -15 -4z"/>
<path d="M2330 1400 c0 -5 7 -7 15 -4 8 4 15 8 15 10 0 2 -7 4 -15 4 -8 0 -15
-4 -15 -10z"/>
<path d="M2216 1334 c-9 -23 -2 -28 13 -10 7 8 8 17 3 20 -6 3 -13 -1 -16 -10z"/>
<path d="M2330 1330 c0 -5 5 -10 10 -10 6 0 10 5 10 10 0 6 -4 10 -10 10 -5 0
-10 -4 -10 -10z"/>
<path d="M2444 509 c-3 -6 -1 -16 5 -22 8 -8 11 -5 11 11 0 24 -5 28 -16 11z"/>
<path d="M2630 449 c0 -5 5 -7 10 -4 6 3 10 8 10 11 0 2 -4 4 -10 4 -5 0 -10
-5 -10 -11z"/>
<path d="M6000 449 c0 -5 5 -7 10 -4 6 3 10 8 10 11 0 2 -4 4 -10 4 -5 0 -10
-5 -10 -11z"/>
<path d="M2585 390 c-3 -5 -1 -10 4 -10 6 0 11 5 11 10 0 6 -2 10 -4 10 -3 0
-8 -4 -11 -10z"/>
<path d="M5960 360 c0 -11 -7 -20 -15 -20 -8 0 -15 -4 -15 -10 0 -5 -21 -10
-46 -10 -40 0 -45 -2 -34 -15 13 -16 61 -11 96 11 21 13 39 64 23 64 -5 0 -9
-9 -9 -20z"/>
<path d="M2600 340 c0 -7 -8 -10 -20 -7 -15 4 -20 0 -20 -13 0 -11 5 -22 10
-25 6 -3 10 -1 10 4 0 15 33 14 48 -1 8 -8 9 -4 4 17 -8 29 -32 47 -32 25z"/>
<path d="M2630 240 c0 -5 7 -10 15 -10 8 0 15 5 15 10 0 6 -7 10 -15 10 -8 0
-15 -4 -15 -10z"/>
<path d="M248 193 c7 -3 16 -2 19 1 4 3 -2 6 -13 5 -11 0 -14 -3 -6 -6z"/>
<path d="M85 180 c-16 -4 -42 -11 -57 -14 -28 -6 -28 -7 -28 -86 l0 -80 85 0
c54 0 85 4 85 11 0 13 25 39 39 39 23 0 38 51 28 96 l-10 44 -56 -1 c-31 0
-69 -4 -86 -9z"/>
<path d="M2715 160 c-3 -5 -1 -10 4 -10 6 0 11 5 11 10 0 6 -2 10 -4 10 -3 0
-8 -4 -11 -10z"/>
<path d="M2637 149 c7 -7 15 -10 18 -7 3 3 -2 9 -12 12 -14 6 -15 5 -6 -5z"/>
<path d="M2675 140 c-3 -5 -1 -10 4 -10 6 0 11 5 11 10 0 6 -2 10 -4 10 -3 0
-8 -4 -11 -10z"/>
<path d="M6300 120 c0 -5 5 -10 11 -10 5 0 7 5 4 10 -3 6 -8 10 -11 10 -2 0
-4 -4 -4 -10z"/>
<path d="M2712 100 c0 -14 2 -19 5 -12 2 6 2 18 0 25 -3 6 -5 1 -5 -13z"/>
<path d="M6160 65 c0 -9 7 -18 15 -21 8 -4 15 -11 15 -17 0 -5 -9 -2 -20 8
-18 16 -20 16 -26 1 -9 -23 -3 -27 46 -33 l42 -6 -17 26 c-9 15 -15 34 -11 42
4 11 -1 15 -19 15 -16 0 -25 -6 -25 -15z"/>
<path d="M270 26 c0 -8 -8 -17 -17 -19 -11 -3 -7 -5 10 -6 17 -1 27 4 27 13 0
8 6 17 13 19 6 3 2 6 -10 6 -14 1 -23 -5 -23 -13z"/>
<path d="M6495 10 c-3 -5 -1 -10 4 -10 6 0 11 5 11 10 0 6 -2 10 -4 10 -3 0
-8 -4 -11 -10z"/>
</g>
</svg>
